<svg width="29" height="26" xmlns="http://www.w3.org/2000/svg"><g fill="none" stroke="#FFF" stroke-width="1.6" fill-rule="evenodd" fill-opacity="0"><path d="M20.899.8a6.98 6.98 0 015.21 2.284C27.464 4.566 28.2 6.592 28.2 8.783c0 2.3-.872 4.396-2.694 6.611-1.73 2.105-4.222 4.238-7.102 6.711-1.001.86-2.135 1.834-3.312 2.87a.895.895 0 01-1.184 0 337.613 337.613 0 00-3.305-2.865c-2.886-2.478-5.378-4.61-7.109-6.715C1.672 13.179.8 11.083.8 8.783c0-2.191.736-4.217 2.09-5.699A6.98 6.98 0 018.102.8c1.494 0 2.861.478 4.065 1.416A8.565 8.565 0 0113.85 3.99c.245.34.461.689.65 1.043.188-.354.405-.702.65-1.043a8.566 8.566 0 011.684-1.774C18.038 1.278 19.405.8 20.9.8z"/><path d="M13.787 10.215l2.776 1.337-1.908 2.674-.868-4.01z"/></g></svg>