<svg width="37" height="27" xmlns="http://www.w3.org/2000/svg"><g fill="none" stroke="#FFF" stroke-width="1.405" fill-rule="evenodd" fill-opacity="0"><path d="M17.909 1.108a1.874 1.874 0 011.528.006l13.177 5.942a1.293 1.293 0 01.649 1.715 1.297 1.297 0 01-.661.655L19.42 15.213a1.874 1.874 0 01-1.494.005L4.486 9.43a1.293 1.293 0 01-.678-1.705c.129-.3.367-.541.666-.673z"/><path d="M31.471 13.724l.026 5.968-12.819 6.527-12.26-5.965-.287-5.602 12.132 4.505c.343.146.733.142 1.074-.01l12.134-5.423z"/></g></svg>