<svg width="26" height="26" xmlns="http://www.w3.org/2000/svg"><g fill="none" stroke="#FFF" stroke-width="1.6" fill-rule="evenodd" fill-opacity="0"><path d="M13 .8c3.369 0 6.419 1.366 8.627 3.573A12.162 12.162 0 0125.2 13v5.3c0 1.905-.772 3.63-2.021 4.879A6.878 6.878 0 0118.3 25.2H7.7a6.878 6.878 0 01-4.879-2.021A6.878 6.878 0 01.8 18.3V13c0-3.369 1.366-6.419 3.573-8.627A12.162 12.162 0 0113 .8z"/><path d="M14.043 5.395a6.18 6.18 0 014.385 1.816 6.18 6.18 0 011.815 4.384v4.2c0 .552-.223 1.052-.585 1.414a1.994 1.994 0 01-1.415.586H7.41a1.994 1.994 0 01-1.415-.586 1.994 1.994 0 01-.585-1.414v-4.2A6.18 6.18 0 017.225 7.21a6.18 6.18 0 014.384-1.816z"/><circle cx="11.595" cy="11.189" r="2.362"/></g></svg>