<svg width="32" height="26" xmlns="http://www.w3.org/2000/svg"><g stroke="#FFF" fill="none" fill-rule="evenodd"><rect stroke-width="1.6" x="3.644" y=".8" width="24.711" height="24.4" rx="7.7"/><ellipse stroke-width="1.4" fill="#5576A5" cx="7.111" cy="10.541" rx="6.411" ry="6.327"/><ellipse stroke-width="1.6" fill="#5576A5" cx="24.889" cy="10.541" rx="6.311" ry="6.227"/><path d="M23.889 7.827c.552 0 1.052.224 1.414.586.362.362.586.862.586 1.414v.724c0 .553-.224 1.053-.586 1.415a1.994 1.994 0 01-1.414.585h-4.931C17.948 11.36 16.943 10.85 16 10.85c-.948 0-1.927.51-2.874 1.702H8.489a1.994 1.994 0 01-1.414-.585 1.994 1.994 0 01-.586-1.415v-.724c0-.552.224-1.052.586-1.414a1.994 1.994 0 011.414-.586z" stroke-width="1.6"/></g></svg>