<svg xmlns="http://www.w3.org/2000/svg" xmlns:xlink="http://www.w3.org/1999/xlink" width="120" height="121.037"><defs><radialGradient id="radial-gradient" cx=".5" cy=".533" r=".309" gradientUnits="objectBoundingBox"><stop offset="0" stop-color="#424546"/><stop offset="1"/></radialGradient><radialGradient id="radial-gradient-2" cx=".5" cy="0" r="1" gradientUnits="objectBoundingBox"><stop offset="0" stop-color="#6ba0e2"/><stop offset=".433" stop-color="#54729a"/><stop offset=".722" stop-color="#385076"/><stop offset="1" stop-color="#131e32"/></radialGradient><radialGradient id="radial-gradient-4" cx=".5" cy="0" r=".703" gradientUnits="objectBoundingBox"><stop offset="0" stop-color="#d12a6f"/><stop offset="1" stop-color="#83234b" stop-opacity="0"/></radialGradient><radialGradient id="radial-gradient-5" cx=".5" cy="0" r="1.139" gradientUnits="objectBoundingBox"><stop offset="0" stop-color="#6ba0e2"/><stop offset=".305" stop-color="#54729a"/><stop offset=".526" stop-color="#385076"/><stop offset="1" stop-color="#131e32"/></radialGradient><radialGradient id="radial-gradient-10" cy=".297" r=".703" xlink:href="#radial-gradient-4"/><radialGradient id="radial-gradient-11" cx=".57" cy="-1.076" r=".973" gradientTransform="matrix(1 0 0 2.188 0 .719)" xlink:href="#radial-gradient-5"/><radialGradient id="radial-gradient-13" cx=".5" cy=".5" r="1.156" gradientTransform="rotate(11.884 .499 .502)" gradientUnits="objectBoundingBox"><stop offset="0" stop-color="#fff"/><stop offset="1" stop-color="#c42e6c"/></radialGradient><radialGradient id="radial-gradient-15" cx=".5" cy=".5" r=".5" gradientUnits="objectBoundingBox"><stop offset="0" stop-color="#c42e6c"/><stop offset="1" stop-color="#621736" stop-opacity="0"/></radialGradient><radialGradient id="radial-gradient-16" cx=".5" cy=".297" r=".703" gradientUnits="objectBoundingBox"><stop offset="0" stop-color="#fff"/><stop offset="1" stop-color="#83234b" stop-opacity="0"/></radialGradient><linearGradient id="linear-gradient" x1=".611" x2=".5" y1="-.796" y2=".829" xlink:href="#radial-gradient-5"/><linearGradient id="linear-gradient-2" x1=".44" x2=".44" y1="-.592" y2=".936" gradientUnits="objectBoundingBox"><stop offset="0" stop-color="#010202"/><stop offset="1" stop-color="#233655"/></linearGradient><linearGradient id="linear-gradient-3" x1=".745" x2="-2.075" y1=".896" y2="-.816" gradientUnits="objectBoundingBox"><stop offset="0" stop-color="#dd1e5b"/><stop offset="1" stop-color="#efc7d8"/></linearGradient><linearGradient id="linear-gradient-8" x2="1" y2="1" gradientUnits="objectBoundingBox"><stop offset="0" stop-color="#f44881" stop-opacity="0"/><stop offset=".527" stop-color="#ff96ba"/><stop offset="1" stop-color="#f0477f" stop-opacity="0"/></linearGradient><linearGradient id="linear-gradient-9" x1=".255" x2="3.075" y1=".896" y2="-.816" gradientUnits="objectBoundingBox"><stop offset="0" stop-color="#af224e"/><stop offset="1" stop-color="#efc7d8"/></linearGradient><linearGradient id="linear-gradient-11" x1=".191" x2="1" y2=".896" gradientUnits="objectBoundingBox"><stop offset="0" stop-color="#fb3b78"/><stop offset="1" stop-color="#efc7d8"/></linearGradient><linearGradient id="linear-gradient-12" x1=".224" x2=".825" y1=".053" y2=".955" gradientUnits="objectBoundingBox"><stop offset="0" stop-color="#ff5f94"/><stop offset="1" stop-color="#ec454f"/></linearGradient><filter id="Oval" width="19" height="19" x="70.5" y="51.536" filterUnits="userSpaceOnUse"><feOffset/><feGaussianBlur result="blur" stdDeviation="1.5"/><feFlood flood-color="#ff1777"/><feComposite in2="blur" operator="in"/><feComposite in="SourceGraphic"/></filter><filter id="Oval-2" width="8.754" height="8.754" x="21.535" y="57.652" filterUnits="userSpaceOnUse"><feOffset/><feGaussianBlur result="blur-2" stdDeviation="1"/><feFlood flood-color="#fd437f"/><feComposite in2="blur-2" operator="in"/><feComposite in="SourceGraphic"/></filter><filter id="Oval_Copy_2" width="8.754" height="8.754" x="23.82" y="59.937" filterUnits="userSpaceOnUse"><feOffset/><feGaussianBlur result="blur-3" stdDeviation="1"/><feFlood flood-color="#fd437f"/><feComposite in2="blur-3" operator="in"/><feComposite in="SourceGraphic"/></filter><filter id="Oval_Copy_5" width="8.754" height="8.754" x="30.675" y="66.792" filterUnits="userSpaceOnUse"><feOffset/><feGaussianBlur result="blur-4" stdDeviation="1"/><feFlood flood-color="#fd437f"/><feComposite in2="blur-4" operator="in"/><feComposite in="SourceGraphic"/></filter><filter id="Oval_Copy_3" width="8.754" height="8.754" x="28.322" y="64.439" filterUnits="userSpaceOnUse"><feOffset/><feGaussianBlur result="blur-5" stdDeviation="1"/><feFlood flood-color="#fd437f"/><feComposite in2="blur-5" operator="in"/><feComposite in="SourceGraphic"/></filter><filter id="Oval_Copy_6" width="8.754" height="8.754" x="32.96" y="69.077" filterUnits="userSpaceOnUse"><feOffset/><feGaussianBlur result="blur-6" stdDeviation="1"/><feFlood flood-color="#fd437f"/><feComposite in2="blur-6" operator="in"/><feComposite in="SourceGraphic"/></filter><clipPath id="clip-path"><circle id="BACKGROUNDDDD" cx="60" cy="60" r="60" class="cls-1"/></clipPath><clipPath id="clip-path-2"><circle id="Mask_Copy_5" cx="60" cy="60" r="60" class="cls-2" data-name="Mask Copy 5"/></clipPath><clipPath id="clip-path-3"><path id="Combined_Shape" d="M60 120a59.721 59.721 0 01-33.547-10.247 60.174 60.174 0 01-21.738-26.4 59.921 59.921 0 015.532-56.9 60.176 60.176 0 0126.4-21.738 59.92 59.92 0 0156.9 5.532 60.175 60.175 0 0121.738 26.4 59.921 59.921 0 01-5.532 56.9 60.174 60.174 0 01-26.4 21.738A59.625 59.625 0 0160 120zM60 5a54.743 54.743 0 00-30.751 9.393 55.16 55.16 0 00-19.927 24.2 54.928 54.928 0 005.071 52.159 55.161 55.161 0 0024.2 19.927 54.927 54.927 0 0052.159-5.071 55.162 55.162 0 0019.927-24.2 54.927 54.927 0 00-5.071-52.159 55.161 55.161 0 00-24.2-19.927A54.655 54.655 0 0060 5z" class="cls-3" data-name="Combined Shape"/></clipPath><style>.cls-1{fill:url(#radial-gradient)}.cls-2{fill:none;stroke:#707070}.cls-2,.cls-7{stroke-miterlimit:10}.cls-2{stroke-width:2px}.cls-3{fill:url(#radial-gradient-2)}.cls-7{fill:rgba(243,71,122,.2);stroke-width:.726px;stroke:#f44881}.cls-9{fill:url(#radial-gradient-5)}.cls-21{fill:url(#linear-gradient-3)}.cls-26{fill:url(#linear-gradient-9)}</style></defs><g id="frameworks-alpine-essentials" transform="translate(-1127 -254.964)"><g id="js-alpine-essentials" transform="translate(1127 256)"><g id="Group_182_Copy_2" data-name="Group 182 Copy 2"><circle id="BACKGROUNDDDD-2" cx="60" cy="60" r="60" class="cls-1" data-name="BACKGROUNDDDD"/><circle id="BACKGROUNDDDD-3" cx="60" cy="60" r="60" fill="url(#radial-gradient-4)" data-name="BACKGROUNDDDD" opacity=".267"/><g id="Group_182_Copy_2-2" clip-path="url(#clip-path)" data-name="Group 182 Copy 2"><g id="Group_194_Copy" data-name="Group 194 Copy" opacity=".196" transform="translate(-8 -6)"><path id="Rectangle" d="M0 0h22v22H0z" class="cls-7"/><path id="Rectangle_Copy_130" d="M0 0h22v22H0z" class="cls-7" data-name="Rectangle Copy 130" transform="translate(0 44)"/><path id="Rectangle_Copy_125" d="M0 0h22v22H0z" class="cls-7" data-name="Rectangle Copy 125" transform="translate(0 22)"/><path id="Rectangle_Copy_131" d="M0 0h22v22H0z" class="cls-7" data-name="Rectangle Copy 131" transform="translate(0 66)"/><path id="Rectangle_Copy_144" d="M0 0h22v22H0z" class="cls-7" data-name="Rectangle Copy 144" transform="translate(0 88)"/><path id="Rectangle_Copy_150" d="M0 0h22v22H0z" class="cls-7" data-name="Rectangle Copy 150" transform="translate(0 110)"/><path id="Rectangle_Copy_122" d="M0 0h22v22H0z" class="cls-7" data-name="Rectangle Copy 122" transform="translate(44)"/><path id="Rectangle_Copy_132" d="M0 0h22v22H0z" class="cls-7" data-name="Rectangle Copy 132" transform="translate(44 44)"/><path id="Rectangle_Copy_126" d="M0 0h22v22H0z" class="cls-7" data-name="Rectangle Copy 126" transform="translate(44 22)"/><path id="Rectangle_Copy_133" d="M0 0h22v22H0z" class="cls-7" data-name="Rectangle Copy 133" transform="translate(44 66)"/><path id="Rectangle_Copy_145" d="M0 0h22v22H0z" class="cls-7" data-name="Rectangle Copy 145" transform="translate(44 88)"/><path id="Rectangle_Copy_151" d="M0 0h22v22H0z" class="cls-7" data-name="Rectangle Copy 151" transform="translate(44 110)"/><path id="Rectangle_Copy_121" d="M0 0h22v22H0z" class="cls-7" data-name="Rectangle Copy 121" transform="translate(22)"/><path id="Rectangle_Copy_134" d="M0 0h22v22H0z" class="cls-7" data-name="Rectangle Copy 134" transform="translate(22 44)"/><path id="Rectangle_Copy_127" d="M0 0h22v22H0z" class="cls-7" data-name="Rectangle Copy 127" transform="translate(22 22)"/><path id="Rectangle_Copy_135" d="M0 0h22v22H0z" class="cls-7" data-name="Rectangle Copy 135" transform="translate(22 66)"/><path id="Rectangle_Copy_146" d="M0 0h22v22H0z" class="cls-7" data-name="Rectangle Copy 146" transform="translate(22 88)"/><path id="Rectangle_Copy_152" d="M0 0h22v22H0z" class="cls-7" data-name="Rectangle Copy 152" transform="translate(22 110)"/><path id="Rectangle_Copy_123" d="M0 0h22v22H0z" class="cls-7" data-name="Rectangle Copy 123" transform="translate(66)"/><path id="Rectangle_Copy_136" d="M0 0h22v22H0z" class="cls-7" data-name="Rectangle Copy 136" transform="translate(66 44)"/><path id="Rectangle_Copy_128" d="M0 0h22v22H0z" class="cls-7" data-name="Rectangle Copy 128" transform="translate(66 22)"/><path id="Rectangle_Copy_137" d="M0 0h22v22H0z" class="cls-7" data-name="Rectangle Copy 137" transform="translate(66 66)"/><path id="Rectangle_Copy_147" d="M0 0h22v22H0z" class="cls-7" data-name="Rectangle Copy 147" transform="translate(66 88)"/><path id="Rectangle_Copy_153" d="M0 0h22v22H0z" class="cls-7" data-name="Rectangle Copy 153" transform="translate(66 110)"/><path id="Rectangle_Copy_124" d="M0 0h22v22H0z" class="cls-7" data-name="Rectangle Copy 124" transform="translate(88)"/><path id="Rectangle_Copy_140" d="M0 0h22v22H0z" class="cls-7" data-name="Rectangle Copy 140" transform="translate(110)"/><path id="Rectangle_Copy_138" d="M0 0h22v22H0z" class="cls-7" data-name="Rectangle Copy 138" transform="translate(88 44)"/><path id="Rectangle_Copy_141" d="M0 0h22v22H0z" class="cls-7" data-name="Rectangle Copy 141" transform="translate(110 44)"/><path id="Rectangle_Copy_129" d="M0 0h22v22H0z" class="cls-7" data-name="Rectangle Copy 129" transform="translate(88 22)"/><path id="Rectangle_Copy_142" d="M0 0h22v22H0z" class="cls-7" data-name="Rectangle Copy 142" transform="translate(110 22)"/><path id="Rectangle_Copy_139" d="M0 0h22v22H0z" class="cls-7" data-name="Rectangle Copy 139" transform="translate(88 66)"/><path id="Rectangle_Copy_148" d="M0 0h22v22H0z" class="cls-7" data-name="Rectangle Copy 148" transform="translate(88 88)"/><path id="Rectangle_Copy_154" d="M0 0h22v22H0z" class="cls-7" data-name="Rectangle Copy 154" transform="translate(88 110)"/><path id="Rectangle_Copy_143" d="M0 0h22v22H0z" class="cls-7" data-name="Rectangle Copy 143" transform="translate(110 66)"/><path id="Rectangle_Copy_149" d="M0 0h22v22H0z" class="cls-7" data-name="Rectangle Copy 149" transform="translate(110 88)"/><path id="Rectangle_Copy_155" d="M0 0h22v22H0z" class="cls-7" data-name="Rectangle Copy 155" transform="translate(110 110)"/></g></g></g><g id="Group_206" data-name="Group 206" transform="translate(36 82)"><g id="Group_210" data-name="Group 210" transform="translate(13.5 4)"><path id="Path_143" d="M0 2.729h4.271A3.052 3.052 0 007 0" class="cls-2" data-name="Path 143" transform="translate(12)"/><path id="Path_143_Copy" d="M0 2.729h-4.271A3.052 3.052 0 01-7 0" class="cls-2" data-name="Path 143 Copy" transform="translate(7)"/><path id="Path_143_Copy_3" d="M4.271 1.259A1.676 1.676 0 005.53 0h2.94a4.5 4.5 0 01-4.2 4.2H0V1.259z" class="cls-9" data-name="Path 143 Copy 3" transform="translate(12)"/><path id="Path_143_Copy_2" d="M-4.271 4.2A4.5 4.5 0 01-8.47 0h2.94a1.676 1.676 0 001.259 1.259H0V4.2z" class="cls-9" data-name="Path 143 Copy 2" transform="translate(7)"/></g><g id="Group_199_Copy" data-name="Group 199 Copy" transform="translate(26 2)"><g id="Group_2" data-name="Group 2"><path id="Path_142" fill="url(#linear-gradient)" d="M24.6 0v10.538a3 3 0 01-3.007 3L7.274 13.5 1.813 25.239l-3.627-1.687 5.73-12.315A3 3 0 016.644 9.5l13.956.035V0z" data-name="Path 142" transform="translate(-26 3)"/><rect id="Rectangle_Copy_14" width="6.72" height="7.056" fill="#111a29" data-name="Rectangle Copy 14" rx="2.352" transform="translate(-6.72)"/></g></g><path id="Rectangle-2" fill="url(#linear-gradient-2)" d="M0 0h30v1a3 3 0 01-3 3H3a3 3 0 01-3-3V0z" data-name="Rectangle" transform="translate(8)"/><path id="Rectangle_Copy_24" d="M-1.47 1v-2.47h32.94a20.341 20.341 0 01-.064 3.228 4.473 4.473 0 01-3.647 3.647C27.216 5.5 29.208 5.47 3 5.47A4.471 4.471 0 01-1.47 1zM3 2.53h24a1.531 1.531 0 001.457-1.06H1.543A1.531 1.531 0 003 2.53z" class="cls-9" data-name="Rectangle Copy 24" transform="translate(8)"/></g><path id="Path_140_Copy" d="M0 22L21.922 0 44 22 66 0l22 22-22 22H22z" class="cls-9" data-name="Path 140 Copy" transform="translate(14 38)"/><path id="Path_140_Copy-2" d="M0 22L21.922 0 44 22 66 0l22 22-22 22H22z" class="cls-9" data-name="Path 140 Copy" transform="translate(14 38)"/><path id="Path_140_Copy-3" fill="url(#radial-gradient-10)" d="M0 22L21.922 0 44 22 66 0l22 22-22 22H22z" data-name="Path 140 Copy" opacity=".352" transform="translate(14 38)"/><g id="Group_199_Copy_2" data-name="Group 199 Copy 2" transform="rotate(135 20.944 40.305)"><path id="Path_52_Copy_3" fill="none" stroke="#2d4161" stroke-miterlimit="10" stroke-width="4" d="M-7.883 8.556c.374 3.169-7.472 7.215.948 11.508 7.388 3.767 8.02 12.731-2.815 11.45-18.876-2.233-22.672 4.77-25.851 7.84" data-name="Path 52 Copy 3"/><g id="Group_2-2" data-name="Group 2" transform="translate(-2)"><rect id="Rectangle_Copy_14-2" width="6.72" height="7.056" fill="#152133" data-name="Rectangle Copy 14" rx="2.352" transform="translate(-9.24 2.352)"/><path id="Rectangle-3" fill="url(#radial-gradient-11)" d="M0 0h11.76v2.352A2.352 2.352 0 019.408 4.7H2.352A2.352 2.352 0 010 2.352V0z" data-name="Rectangle" transform="translate(-11.76)"/></g></g><path id="Path_141_Copy_2" d="M22 0L0 22l22 22 22-22z" class="cls-9" data-name="Path 141 Copy 2" transform="translate(58 38)"/><path id="Path_141_Copy" stroke="#f44881" stroke-miterlimit="10" stroke-width=".4" d="M82.121 49.121a3 3 0 00-4.243 0l-8.757 8.758a3 3 0 000 4.243l1.634 1.634 1.014 1.014L75.3 68.3l2.576 2.576a3 3 0 004.243 0l8.757-8.757a3 3 0 000-4.243z" data-name="Path 141 Copy" opacity=".519"/><g filter="url(#Oval)" transform="translate(0 -1.04)"><circle id="Oval-3" cx="5" cy="5" r="5" fill="url(#radial-gradient-13)" data-name="Oval" transform="translate(75 56.04)"/></g><g id="Group_10" data-name="Group 10"><path id="Combined_Shape-2" d="M60 120a59.721 59.721 0 01-33.547-10.247 60.174 60.174 0 01-21.738-26.4 59.921 59.921 0 015.532-56.9 60.176 60.176 0 0126.4-21.738 59.92 59.92 0 0156.9 5.532 60.175 60.175 0 0121.738 26.4 59.921 59.921 0 01-5.532 56.9 60.174 60.174 0 01-26.4 21.738A59.625 59.625 0 0160 120zM60 5a54.743 54.743 0 00-30.751 9.393 55.16 55.16 0 00-19.927 24.2 54.928 54.928 0 005.071 52.159 55.161 55.161 0 0024.2 19.927 54.927 54.927 0 0052.159-5.071 55.162 55.162 0 0019.927-24.2 54.927 54.927 0 00-5.071-52.159 55.161 55.161 0 00-24.2-19.927A54.655 54.655 0 0060 5z" class="cls-3" data-name="Combined Shape"/></g><g id="Group_207" data-name="Group 207" transform="rotate(-45 83.684 6.701)"><rect id="Rectangle-4" width="7.799" height="26.62" fill="#090f1a" data-name="Rectangle" rx="3.63" transform="translate(.991)"/><g id="Group_8_Copy_2" data-name="Group 8 Copy 2"><g filter="url(#Oval-2)" transform="rotate(45 84.579 7.223)"><ellipse id="Oval-4" cx=".969" cy=".978" class="cls-21" data-name="Oval" rx=".969" ry=".978" transform="rotate(45 -60.251 61.613)"/></g><g filter="url(#Oval_Copy_2)" transform="rotate(45 84.579 7.223)"><ellipse id="Oval_Copy_2-2" cx=".969" cy=".978" class="cls-21" data-name="Oval Copy 2" rx=".969" ry=".978" transform="rotate(45 -61.875 65.51)"/></g><g filter="url(#Oval_Copy_5)" transform="rotate(45 84.579 7.223)"><ellipse id="Oval_Copy_5-2" cx=".969" cy=".978" class="cls-21" data-name="Oval Copy 5" rx=".969" ry=".978" transform="rotate(45 -66.714 77.216)"/></g><g filter="url(#Oval_Copy_3)" transform="rotate(45 84.579 7.223)"><ellipse id="Oval_Copy_3-2" cx=".969" cy=".978" class="cls-21" data-name="Oval Copy 3" rx=".969" ry=".978" transform="rotate(45 -65.057 73.192)"/></g><g filter="url(#Oval_Copy_6)" transform="rotate(45 84.579 7.223)"><ellipse id="Oval_Copy_6-2" cx=".969" cy=".978" class="cls-21" data-name="Oval Copy 6" rx=".969" ry=".978" transform="rotate(45 -68.338 81.113)"/></g></g></g><path id="Path_144" fill="url(#linear-gradient-8)" d="M43.866 44.212L-.212.212l.424-.424 44.078 44z" data-name="Path 144" transform="translate(35.922 38)"/><path id="Rectangle-5" fill="#131d2e" d="M0 0h30v1H0z" data-name="Rectangle" transform="translate(44 82)"/><g id="Group_36" data-name="Group 36" transform="rotate(-106 73.716 36.929)"><circle id="Oval_Copy_7" cx="12" cy="12" r="12" fill="url(#radial-gradient-15)" data-name="Oval Copy 7" transform="rotate(-125.03 33.976 3.562)" style="mix-blend-mode:lighten;isolation:isolate"/><g id="Group_38" data-name="Group 38"><path id="Path_120" fill="none" stroke="#f44881" stroke-linejoin="round" stroke-miterlimit="10" stroke-width="2" d="M1.048 28.023l6.826-1.685 16.305 20.953 31.437-32.63" data-name="Path 120"/><g id="Group_31" data-name="Group 31" transform="rotate(-125.03 11.437 13.38)"><circle id="Oval-5" cx="2.4" cy="2.4" r="2.4" class="cls-26" data-name="Oval"/></g><g id="Group_14_Copy" data-name="Group 14 Copy" transform="rotate(-125.03 25.65 19.916)"><circle id="Oval-6" cx="3.85" cy="3.85" r="3.85" class="cls-26" data-name="Oval" transform="translate(.386 .4)"/></g></g><g id="Group_29" data-name="Group 29" transform="rotate(-125.03 31.988 -3.384)"><circle id="Oval-7" cx="3.5" cy="3.5" r="3.5" fill="url(#linear-gradient-11)" data-name="Oval"/><path id="Combined_Shape-3" fill="rgba(255,255,255,0.2)" d="M1.327 6a3.333 3.333 0 012.007-6A3.307 3.307 0 016 1.333a3.334 3.334 0 00-4.671 4.661z" data-name="Combined Shape"/></g></g><path id="Combined_Shape-4" fill="url(#radial-gradient-16)" d="M1.89 75A60.3 60.3 0 010 60a59.72 59.72 0 0110.247-33.546 60.176 60.176 0 0126.4-21.738 59.92 59.92 0 0156.9 5.532 60.175 60.175 0 0121.738 26.4A60.3 60.3 0 01118.11 75 60.019 60.019 0 009.848 57.051 59.589 59.589 0 001.89 75z" data-name="Combined Shape" opacity=".199"/></g><g id="Color_Crown_Shadow" data-name="Color Crown + Shadow" transform="translate(3583 646)"><g id="Color_Crown" data-name="Color Crown" transform="translate(-2456 -390)"><path id="Ring" fill="url(#linear-gradient-12)" d="M780 826a59.72 59.72 0 01-33.547-10.247 60.176 60.176 0 01-21.739-26.4 59.921 59.921 0 015.532-56.9 60.176 60.176 0 0126.4-21.738 59.92 59.92 0 0156.9 5.532 60.174 60.174 0 0121.738 26.4 59.923 59.923 0 01-5.532 56.9 60.174 60.174 0 01-26.4 21.739A59.623 59.623 0 01780 826zm0-118a57.729 57.729 0 00-32.429 9.905 58.167 58.167 0 00-21.014 25.518 57.924 57.924 0 005.348 55 58.169 58.169 0 0025.518 21.014 57.923 57.923 0 0055-5.348 58.17 58.17 0 0021.014-25.518 57.924 57.924 0 00-5.348-55 58.171 58.171 0 00-25.518-21.013A57.638 57.638 0 00780 708z" transform="translate(-720 -706)"/></g></g></g></svg>