<svg xmlns="http://www.w3.org/2000/svg" xmlns:xlink="http://www.w3.org/1999/xlink" width="120" height="120.001"><defs><linearGradient id="linear-gradient" x1=".224" x2=".825" y1=".053" y2=".955" gradientUnits="objectBoundingBox"><stop offset="0" stop-color="#ff5f94"/><stop offset="1" stop-color="#ec454f"/></linearGradient><linearGradient id="linear-gradient-3" x1="-.952" x2="1" y1="-.466" y2=".756" gradientUnits="objectBoundingBox"><stop offset="0" stop-color="#6ba0e2"/><stop offset="1" stop-color="#0b121d"/></linearGradient><linearGradient id="linear-gradient-4" x1=".527" x2=".878" y1="-.314" y2="1.048" xlink:href="#linear-gradient-3"/><linearGradient id="linear-gradient-5" x1=".976" x2=".015" y1=".327" y2=".449" gradientUnits="objectBoundingBox"><stop offset="0" stop-color="#6ba0e2"/><stop offset="1" stop-color="#131e32"/></linearGradient><linearGradient id="linear-gradient-6" x1="1.116" x2=".133" y1="-.082" y2=".596" xlink:href="#linear-gradient-3"/><linearGradient id="linear-gradient-7" x2="1" y1=".5" y2=".5" gradientUnits="objectBoundingBox"><stop offset="0" stop-color="#db7c9b" stop-opacity="0"/><stop offset=".552" stop-color="#fff"/><stop offset="1" stop-color="#c42e6c" stop-opacity="0"/></linearGradient><linearGradient id="linear-gradient-8" x1=".083" x2=".921" y1=".5" y2=".696" xlink:href="#linear-gradient-7"/><linearGradient id="linear-gradient-10" x1=".255" x2="3.075" y1=".896" y2="-.816" gradientUnits="objectBoundingBox"><stop offset="0" stop-color="#af224e"/><stop offset="1" stop-color="#efc7d8"/></linearGradient><linearGradient id="linear-gradient-12" x1=".191" x2="1" y2=".896" gradientUnits="objectBoundingBox"><stop offset="0" stop-color="#fb3b78"/><stop offset="1" stop-color="#efc7d8"/></linearGradient><radialGradient id="radial-gradient" cx=".5" cy="0" r=".597" gradientTransform="rotate(2.668 .494 .01)" gradientUnits="objectBoundingBox"><stop offset="0" stop-color="#4b3864"/><stop offset="1"/></radialGradient><radialGradient id="radial-gradient-2" cx=".5" cy="-.335" r="1.112" gradientUnits="objectBoundingBox"><stop offset="0" stop-color="#6ba0e2"/><stop offset=".305" stop-color="#54729a"/><stop offset=".526" stop-color="#385076"/><stop offset="1" stop-color="#131e32"/></radialGradient><radialGradient id="radial-gradient-3" cx=".533" cy=".5" r=".283" gradientTransform="matrix(.999 .047 -.069 1.484 .035 -.267)" gradientUnits="objectBoundingBox"><stop offset="0" stop-color="#d12a6f"/><stop offset="1" stop-color="#83234b" stop-opacity="0"/></radialGradient><radialGradient id="radial-gradient-4" cx=".5" cy=".5" r=".5" gradientUnits="objectBoundingBox"><stop offset="0" stop-color="#c42e6c"/><stop offset="1" stop-color="#621736" stop-opacity="0"/></radialGradient><filter id="Rectangle" width="11.132" height="51.508" x="55.319" y="34.018" filterUnits="userSpaceOnUse"><feOffset/><feGaussianBlur result="blur" stdDeviation="1.5"/><feFlood flood-color="#ff1777"/><feComposite in2="blur" operator="in"/><feComposite in="SourceGraphic"/></filter><filter id="Rectangle-2" width="11.132" height="51.508" x="45.319" y="34.018" filterUnits="userSpaceOnUse"><feOffset/><feGaussianBlur result="blur-2" stdDeviation="1.5"/><feFlood flood-color="#ff1777"/><feComposite in2="blur-2" operator="in"/><feComposite in="SourceGraphic"/></filter><filter id="Rectangle-3" width="11.132" height="51.508" x="65.319" y="34.018" filterUnits="userSpaceOnUse"><feOffset/><feGaussianBlur result="blur-3" stdDeviation="1.5"/><feFlood flood-color="#ff1777"/><feComposite in2="blur-3" operator="in"/><feComposite in="SourceGraphic"/></filter><clipPath id="clip-path"><circle id="Ellipse_89" cx="58" cy="58" r="58" class="cls-1" data-name="Ellipse 89" transform="translate(403 102)"/></clipPath><style>.cls-1{fill:url(#linear-gradient)}.cls-9{opacity:.489;fill:url(#linear-gradient-8)}.cls-15{fill:url(#linear-gradient-10)}</style></defs><g id="frameworks-tailwind-css" transform="translate(-401 -100)"><g id="Color_Crown_Shadow" data-name="Color Crown + Shadow" transform="translate(2857 490)"><circle id="Shadow" cx="58" cy="58" r="58" fill="url(#radial-gradient)" transform="translate(-2454 -388)"/><g id="Color_Crown" data-name="Color Crown" transform="translate(-2456 -390)"><path id="Ring" d="M780 826a59.72 59.72 0 01-33.547-10.247 60.176 60.176 0 01-21.739-26.4 59.921 59.921 0 015.532-56.9 60.176 60.176 0 0126.4-21.738 59.92 59.92 0 0156.9 5.532 60.174 60.174 0 0121.738 26.4 59.923 59.923 0 01-5.532 56.9 60.174 60.174 0 01-26.4 21.739A59.623 59.623 0 01780 826zm0-118a57.729 57.729 0 00-32.429 9.905 58.167 58.167 0 00-21.014 25.518 57.924 57.924 0 005.348 55 58.169 58.169 0 0025.518 21.014 57.923 57.923 0 0055-5.348 58.17 58.17 0 0021.014-25.518 57.924 57.924 0 00-5.348-55 58.171 58.171 0 00-25.518-21.013A57.638 57.638 0 00780 708z" class="cls-1" transform="translate(-720 -706)"/></g></g><g id="Mask_Group_89" clip-path="url(#clip-path)" data-name="Mask Group 89"><g id="Group_566" data-name="Group 566"><path id="Path_202" fill="url(#linear-gradient-3)" d="M44.658-24Q26.795-24 22.329-6.137q6.7-8.932 15.63-6.7c3.4.849 5.826 3.314 8.513 6.042 4.379 4.444 9.446 9.588 20.515 9.588q17.863 0 22.329-17.863-6.7 8.932-15.63 6.7c-3.4-.849-5.826-3.314-8.513-6.042C60.794-18.856 55.727-24 44.658-24z" data-name="Path 202" transform="translate(356 154)"/><path id="Path_204" fill="url(#linear-gradient-4)" d="M44.658-24Q26.795-24 22.329-6.137q6.7-8.932 15.63-6.7c3.4.849 5.826 3.314 8.513 6.042 4.379 4.444 9.446 9.588 20.515 9.588q17.863 0 22.329-17.863-6.7 8.932-15.63 6.7c-3.4-.849-5.826-3.314-8.513-6.042C60.794-18.856 55.727-24 44.658-24z" data-name="Path 204" opacity=".9" transform="translate(332 183)"/><path id="Path_203" fill="url(#linear-gradient-5)" d="M44.658-24Q26.795-24 22.329-6.137q6.7-8.932 15.63-6.7c3.4.849 5.826 3.314 8.513 6.042 4.379 4.444 9.446 9.588 20.515 9.588q17.863 0 22.329-17.863-6.7 8.932-15.63 6.7c-3.4-.849-5.826-3.314-8.513-6.042C60.794-18.856 55.727-24 44.658-24z" data-name="Path 203" transform="translate(480 157)"/><path id="Path_205" fill="url(#linear-gradient-6)" d="M44.658-24Q26.795-24 22.329-6.137q6.7-8.932 15.63-6.7c3.4.849 5.826 3.314 8.513 6.042 4.379 4.444 9.446 9.588 20.515 9.588q17.863 0 22.329-17.863-6.7 8.932-15.63 6.7c-3.4-.849-5.826-3.314-8.513-6.042C60.794-18.856 55.727-24 44.658-24z" data-name="Path 205" transform="translate(457 185)"/></g></g><g id="Group_565" data-name="Group 565"><g filter="url(#Rectangle)" transform="translate(401 100)"><path id="Rectangle-4" fill="url(#linear-gradient-7)" d="M0 0l42.508.238v1.894H0z" data-name="Rectangle" transform="rotate(90 11.715 50.235)"/></g><g filter="url(#Rectangle-2)" transform="translate(401 100)"><path id="Rectangle-5" d="M0 0l42.508.238v1.894H0z" class="cls-9" data-name="Rectangle" transform="rotate(90 6.715 45.235)"/></g><g filter="url(#Rectangle-3)" transform="translate(401 100)"><path id="Rectangle-6" d="M0 0l42.508.238v1.894H0z" class="cls-9" data-name="Rectangle" transform="rotate(90 16.715 55.235)"/></g></g><path id="Path_200" fill="url(#radial-gradient-2)" d="M44.658-24Q26.795-24 22.329-6.137q6.7-8.932 15.63-6.7c3.4.849 5.826 3.314 8.513 6.042 4.379 4.444 9.446 9.588 20.515 9.588q17.863 0 22.329-17.863-6.7 8.932-15.63 6.7c-3.4-.849-5.826-3.314-8.513-6.042C60.794-18.856 55.727-24 44.658-24zM22.329 2.795Q4.466 2.795 0 20.658q6.7-8.932 15.63-6.7c3.4.849 5.826 3.314 8.513 6.042 4.379 4.444 9.446 9.588 20.515 9.588q17.863 0 22.329-17.863-6.7 8.932-15.63 6.7c-3.4-.849-5.826-3.314-8.513-6.042-4.379-4.444-9.444-9.588-20.515-9.588z" data-name="Path 200" transform="translate(417 157)"/><path id="Path_201" fill="url(#radial-gradient-3)" d="M44.658-24Q26.795-24 22.329-6.137q6.7-8.932 15.63-6.7c3.4.849 5.826 3.314 8.513 6.042 4.379 4.444 9.446 9.588 20.515 9.588q17.863 0 22.329-17.863-6.7 8.932-15.63 6.7c-3.4-.849-5.826-3.314-8.513-6.042C60.794-18.856 55.727-24 44.658-24zM22.329 2.795Q4.466 2.795 0 20.658q6.7-8.932 15.63-6.7c3.4.849 5.826 3.314 8.513 6.042 4.379 4.444 9.446 9.588 20.515 9.588q17.863 0 22.329-17.863-6.7 8.932-15.63 6.7c-3.4-.849-5.826-3.314-8.513-6.042-4.379-4.444-9.444-9.588-20.515-9.588z" data-name="Path 201" transform="translate(417 157)"/><g id="Group_36" data-name="Group 36" transform="rotate(-106 312.893 -64.912)"><circle id="Oval_Copy_7" cx="12" cy="12" r="12" fill="url(#radial-gradient-4)" data-name="Oval Copy 7" transform="rotate(-125.03 33.976 3.562)" style="mix-blend-mode:lighten;isolation:isolate"/><circle id="Oval_Copy_7-2" cx="29" cy="29" r="29" fill="url(#radial-gradient-4)" data-name="Oval Copy 7" opacity=".568" transform="rotate(-125.03 38.048 16.485)" style="mix-blend-mode:lighten;isolation:isolate"/><g id="Group_38" data-name="Group 38"><path id="Path_120" fill="none" stroke="#f44881" stroke-linejoin="round" stroke-miterlimit="10" stroke-width="2" d="M.037 29.07l7.836-2.728L24.18 47.291l31.437-32.63" data-name="Path 120"/><g id="Group_31" data-name="Group 31" transform="rotate(-125.03 11.437 13.38)"><circle id="Oval" cx="2.4" cy="2.4" r="2.4" class="cls-15"/></g><g id="Group_14_Copy" data-name="Group 14 Copy" transform="rotate(-125.03 25.65 19.916)"><circle id="Oval-2" cx="3.85" cy="3.85" r="3.85" class="cls-15" data-name="Oval" transform="translate(.386 .4)"/></g></g><g id="Group_29" data-name="Group 29" transform="rotate(-125.03 31.988 -3.384)"><circle id="Oval-3" cx="3.5" cy="3.5" r="3.5" fill="url(#linear-gradient-12)" data-name="Oval"/><path id="Combined_Shape" fill="rgba(255,255,255,0.2)" d="M1.327 6a3.333 3.333 0 012.007-6A3.307 3.307 0 016 1.333a3.334 3.334 0 00-4.671 4.661z" data-name="Combined Shape"/></g></g></g></svg>