<svg width="120" height="120" xmlns="http://www.w3.org/2000/svg" xmlns:xlink="http://www.w3.org/1999/xlink"><defs><linearGradient x1="22.4%" y1="5.3%" x2="82.5%" y2="95.5%" id="a"><stop stop-color="#FF5F94" offset="0%"/><stop stop-color="#EC454F" offset="100%"/></linearGradient><linearGradient x1="25.613%" y1="6.73%" x2="50%" y2="100%" id="b"><stop stop-color="#FF5E92" offset="0%"/><stop stop-color="#ED4653" offset="100%"/></linearGradient><linearGradient x1="-76.812%" y1="57.808%" x2="107.386%" y2="22.423%" id="k"><stop stop-color="#F4487D" stop-opacity=".275" offset="0%"/><stop stop-color="#FF709D" offset="100%"/></linearGradient><linearGradient x1="-47.656%" y1="-84.076%" x2="76.556%" y2="72.595%" id="m"><stop stop-color="#5F80AB" offset="0%"/><stop stop-color="#14243E" offset="100%"/></linearGradient><linearGradient x1="59.127%" y1="-134.752%" x2="59.127%" y2="50%" id="p"><stop stop-color="#FB3B78" offset="0%"/><stop stop-color="#EFC7D8" offset="100%"/></linearGradient><linearGradient x1="80.884%" y1="0%" x2="0%" y2="89.582%" id="s"><stop stop-color="#FB3B78" offset="0%"/><stop stop-color="#EFC7D8" offset="100%"/></linearGradient><linearGradient x1="50%" y1="-22.464%" x2="31.531%" y2="163.041%" id="t"><stop stop-color="#DD1E5B" offset="0%"/><stop stop-color="#EFC7D8" offset="100%"/></linearGradient><linearGradient x1="-18.695%" y1="3.061%" x2="56.495%" y2="53.468%" id="u"><stop stop-color="#F4487D" stop-opacity=".275" offset="0%"/><stop stop-color="#FF709D" offset="100%"/></linearGradient><linearGradient x1="136.142%" y1="100%" x2="-125.703%" y2="-38.215%" id="v"><stop stop-color="#DD1E5B" offset="0%"/><stop stop-color="#EFC7D8" offset="100%"/></linearGradient><radialGradient cx="50%" cy="0%" fx="50%" fy="0%" r="100%" id="d"><stop stop-color="#263A5E" offset="0%"/><stop stop-color="#0C1321" offset="100%"/></radialGradient><radialGradient cx="50%" cy="50%" fx="50%" fy="50%" r="47.003%" gradientTransform="matrix(.48 .45558 -.87727 .24927 .698 .147)" id="f"><stop stop-color="#7099CE" offset="0%"/><stop stop-color="#213658" offset="100%"/></radialGradient><radialGradient cx="50%" cy="50%" fx="50%" fy="50%" r="72.085%" gradientTransform="scale(.62145 1) rotate(25.696 .652 1.168)" id="g"><stop stop-color="#5F80AB" offset="0%"/><stop stop-color="#213658" offset="100%"/></radialGradient><radialGradient cx="50%" cy="57.037%" fx="50%" fy="57.037%" r="29.795%" gradientTransform="matrix(0 1 -1.2953 0 1.239 .07)" id="h"><stop stop-color="#203250" offset="0%"/><stop stop-color="#203352" stop-opacity="0" offset="100%"/></radialGradient><radialGradient cx="44.641%" cy="64.05%" fx="44.641%" fy="64.05%" r="29.532%" gradientTransform="matrix(.18147 .98072 -2.00905 .43114 1.652 -.073)" id="i"><stop stop-color="#203250" offset="0%"/><stop stop-color="#203352" stop-opacity="0" offset="100%"/></radialGradient><radialGradient cx="50%" cy="57.037%" fx="50%" fy="57.037%" r="29.795%" gradientTransform="matrix(0 1 -1.48033 0 1.344 .07)" id="j"><stop stop-color="#203250" offset="0%"/><stop stop-color="#203352" stop-opacity="0" offset="100%"/></radialGradient><radialGradient cx="50%" cy="50%" fx="50%" fy="50%" r="61.744%" gradientTransform="matrix(.5966 .27996 -.17398 .96001 .289 -.12)" id="l"><stop stop-color="#7099CE" offset="0%"/><stop stop-color="#213658" offset="100%"/></radialGradient><filter x="-63.3%" y="-70.3%" width="226.5%" height="240.6%" filterUnits="objectBoundingBox" id="n"><feOffset in="SourceAlpha" result="shadowOffsetOuter1"/><feGaussianBlur stdDeviation="7.5" in="shadowOffsetOuter1" result="shadowBlurOuter1"/><feColorMatrix values="0 0 0 0 0.980298913 0 0 0 0 0.395687345 0 0 0 0 0.60060274 0 0 0 1 0" in="shadowBlurOuter1"/></filter><filter x="-51.9%" y="-51.9%" width="203.9%" height="203.9%" filterUnits="objectBoundingBox" id="q"><feGaussianBlur stdDeviation="2.751" in="SourceGraphic"/></filter><filter x="-103.9%" y="-103.9%" width="307.8%" height="307.8%" filterUnits="objectBoundingBox" id="r"><feGaussianBlur stdDeviation="2.751" in="SourceGraphic"/></filter><path d="M58.854 52.764c.291-.428.61-.483.868-.483s.689.055.98.483c2.292 3.15 6.077 9.423 8.869 14.05 1.82 3.018 3.219 5.336 3.505 5.631 1.077 1.107 2.554.417 3.413-.839.845-1.236 1.079-2.105 1.079-3.03 0-.632-12.241-23.398-13.474-25.293C62.91 41.46 62.522 41 60.494 41h-1.52c-2.022 0-2.314.46-3.5 2.283C54.24 45.178 42 67.944 42 68.575c0 .926.235 1.795 1.08 3.031.858 1.256 2.335 1.946 3.412.84.287-.296 1.685-2.614 3.505-5.632 2.792-4.627 6.565-10.9 8.857-14.05z" id="o"/><path d="M59.5 2c22.333 0 41.691 12.732 51.214 31.333A57.979 57.979 0 00104.5 33C72.744 33 47 58.744 47 90.5c0 9.424 2.267 18.318 6.286 26.167C24.453 113.57 2 89.157 2 59.5 2 27.744 27.744 2 59.5 2z" id="w"/><circle id="c" cx="58.5" cy="58.5" r="58.5"/></defs><g fill="none" fill-rule="evenodd"><circle fill-opacity=".15" fill="#000" cx="59.5" cy="59.5" r="58.5"/><path d="M59.529 119.032a59.227 59.227 0 01-33.27-10.162 59.679 59.679 0 01-21.56-26.182 59.426 59.426 0 015.487-56.43A59.679 59.679 0 0136.368 4.7a59.425 59.425 0 0156.43 5.486 59.677 59.677 0 0121.558 26.182 59.428 59.428 0 01-5.487 56.43 59.677 59.677 0 01-26.181 21.559 59.132 59.132 0 01-23.16 4.675zm0-117.025a57.253 57.253 0 00-32.161 9.823 57.686 57.686 0 00-20.84 25.307 57.445 57.445 0 005.303 54.546 57.688 57.688 0 0025.307 20.84 57.444 57.444 0 0054.546-5.304 57.69 57.69 0 0020.84-25.307 57.445 57.445 0 00-5.304-54.545 57.69 57.69 0 00-25.307-20.84 57.163 57.163 0 00-22.384-4.52z" fill="url(#a)" fill-rule="nonzero"/><circle fill-opacity=".15" fill="#000" cx="60" cy="60" r="60"/><circle stroke="url(#b)" stroke-width="2" cx="60" cy="60" r="59"/><g transform="translate(1 1)"><mask id="e" fill="#fff"><use xlink:href="#c"/></mask><use fill="url(#d)" xlink:href="#c"/><g mask="url(#e)"><g transform="translate(-21.972 -27.045)"><path d="M80.972 13.893c20.407 0 36.95 31.856 36.95 71.152 0 39.297-16.543 71.153-36.95 71.153-20.408 0-36.95-31.856-36.95-71.153 0-39.296 16.542-71.152 36.95-71.152zm0 11.018c-5.118 0-11.165 4.925-16.345 14.898-6.026 11.604-9.583 27.797-9.583 45.236 0 17.44 3.557 33.633 9.583 45.237 5.18 9.973 11.227 14.898 16.345 14.898 5.118 0 11.165-4.925 16.344-14.898 6.027-11.604 9.583-27.797 9.583-45.237s-3.556-33.632-9.583-45.236C92.136 29.836 86.09 24.91 80.972 24.91z" fill="url(#f)" fill-rule="nonzero"/><path d="M10.564 49.47c10.181-15.433 49.957-12.016 88.842 7.632s62.154 48.087 51.973 63.52c-10.18 15.432-49.957 12.015-88.841-7.633C23.653 93.341.384 64.902 10.564 49.47zm32.713 1.637c-.906-.078-1.79-.14-2.651-.185l-.733-.036-.721-.027a67.88 67.88 0 00-2.77-.039l-.664.009c-1.315.023-2.56.088-3.73.19l-.58.054-.285.03-.56.063c-5.731.685-9.468 2.324-10.816 4.368-.653.99-.816 2.415-.186 4.798.902 3.42 3.292 7.684 7.103 12.342 8.29 10.13 22.037 20.692 38.726 29.404l1.047.542c.35.18.701.359 1.054.537 17.724 8.956 36.08 14.532 51.155 15.827.907.078 1.79.14 2.652.185l.732.036.721.027a67.09 67.09 0 002.77.039l.664-.009a54.068 54.068 0 003.73-.19l.58-.054.285-.03.56-.063c5.732-.685 9.468-2.324 10.816-4.368.653-.99.816-2.415.187-4.798-.902-3.42-3.293-7.684-7.104-12.342-8.289-10.13-22.037-20.692-38.725-29.404l-1.047-.542c-.35-.18-.702-.359-1.055-.537-17.724-8.956-36.079-14.532-51.155-15.827z" fill="url(#g)" fill-rule="nonzero"/><ellipse fill="url(#h)" transform="rotate(12 81.472 114.045)" cx="81.472" cy="114.045" rx="16" ry="13"/><ellipse fill="url(#i)" transform="rotate(-17 81.472 53.045)" cx="81.472" cy="53.045" rx="14" ry="13"/><ellipse fill="url(#j)" transform="rotate(21 132.472 83.045)" cx="132.472" cy="83.045" rx="14" ry="13"/><ellipse fill="url(#j)" transform="rotate(21 30.472 84.045)" cx="30.472" cy="84.045" rx="14" ry="13"/><path stroke="url(#k)" stroke-width="1.782" stroke-linejoin="round" d="M29.304 111.42l10.51-4.523 41.356 30.44-.534-45.716"/><path d="M10.564 49.47c10.181-15.433 49.957-12.016 88.842 7.632s62.154 48.087 51.973 63.52c-10.18 15.432-49.957 12.015-88.841-7.633C23.653 93.341.384 64.902 10.564 49.47zm32.713 1.637c-.906-.078-1.79-.14-2.651-.185l-.733-.036-.721-.027a67.88 67.88 0 00-2.77-.039l-.664.009c-1.315.023-2.56.088-3.73.19l-.58.054-.285.03-.56.063c-5.731.685-9.468 2.324-10.816 4.368-.653.99-.816 2.415-.186 4.798.902 3.42 3.292 7.684 7.103 12.342 8.29 10.13 22.037 20.692 38.726 29.404l1.047.542c.35.18.701.359 1.054.537 17.724 8.956 36.08 14.532 51.155 15.827.907.078 1.79.14 2.652.185l.732.036.721.027a67.09 67.09 0 002.77.039l.664-.009a54.068 54.068 0 003.73-.19l.58-.054.285-.03.56-.063c5.732-.685 9.468-2.324 10.816-4.368.653-.99.816-2.415.187-4.798-.902-3.42-3.293-7.684-7.104-12.342-8.289-10.13-22.037-20.692-38.725-29.404l-1.047-.542c-.35-.18-.702-.359-1.055-.537-17.724-8.956-36.079-14.532-51.155-15.827z" fill="url(#l)" fill-rule="nonzero" transform="rotate(129 80.972 85.045)"/></g></g><path d="M59-1c32.585 0 59 26.415 59 59s-26.415 59-59 59S0 90.585 0 58 26.415-1 59-1zm0 5.9C29.674 4.9 5.9 28.674 5.9 58s23.774 53.1 53.1 53.1 53.1-23.774 53.1-53.1S88.326 4.9 59 4.9z" fill="url(#m)" fill-rule="nonzero" mask="url(#e)"/></g><path d="M59.529 119.032a59.227 59.227 0 01-33.27-10.162 59.679 59.679 0 01-21.56-26.182 59.426 59.426 0 015.487-56.43A59.679 59.679 0 0136.368 4.7a59.425 59.425 0 0156.43 5.486 59.677 59.677 0 0121.558 26.182 59.428 59.428 0 01-5.487 56.43 59.677 59.677 0 01-26.181 21.559 59.132 59.132 0 01-23.16 4.675zm0-117.025a57.253 57.253 0 00-32.161 9.823 57.686 57.686 0 00-20.84 25.307 57.445 57.445 0 005.303 54.546 57.688 57.688 0 0025.307 20.84 57.444 57.444 0 0054.546-5.304 57.69 57.69 0 0020.84-25.307 57.445 57.445 0 00-5.304-54.545 57.69 57.69 0 00-25.307-20.84 57.163 57.163 0 00-22.384-4.52z" fill="url(#a)" fill-rule="nonzero"/><use fill="#000" filter="url(#n)" xlink:href="#o"/><use fill="url(#p)" xlink:href="#o"/><g transform="rotate(-158 39.44 32.244)"><circle fill="#C42E6C" opacity=".061" style="mix-blend-mode:lighten" filter="url(#q)" cx="7.943" cy="7.943" r="7.943"/><circle fill="#C42E6C" style="mix-blend-mode:lighten" filter="url(#r)" cx="7.015" cy="8.317" r="3.971"/><circle fill="url(#s)" cx="7.943" cy="7.943" r="2.978"/></g><circle cx="3.475" cy="3.475" r="3.475" transform="rotate(-158 18.315 40.74)" fill="url(#t)"/><path stroke="url(#u)" stroke-width="1.782" stroke-linejoin="round" d="M60.17 110.828L18.842 80.851"/><circle fill="url(#v)" transform="rotate(90 60.3 110.836)" cx="60.3" cy="110.836" r="3.5"/><use fill="#FFF" opacity=".317" style="mix-blend-mode:soft-light" xlink:href="#w"/></g></svg>