<svg xmlns="http://www.w3.org/2000/svg" width="165" height="120"><defs><linearGradient id="b" x1="30.414%" x2="50%" y1="0%" y2="100%"><stop offset="0%" stop-color="#5B79A2"/><stop offset="100%" stop-color="#2E4469"/></linearGradient><linearGradient id="c" x1="54.872%" x2="54.872%" y1="62.175%" y2="100%"><stop offset="0%" stop-color="#1A273E"/><stop offset="100%" stop-color="#2E4469"/></linearGradient><linearGradient id="d" x1="98.741%" x2="1.259%" y1="48.741%" y2="48.741%"><stop offset="0%" stop-color="#21C8F6"/><stop offset="100%" stop-color="#637BFF"/></linearGradient><linearGradient id="e" x1="75.874%" x2="92.229%" y1="33.079%" y2="100%"><stop offset="0%" stop-color="#5B79A2"/><stop offset="100%" stop-color="#2E4469"/></linearGradient><linearGradient id="f" x1="12.8%" x2="107.421%" y1=".616%" y2="98.781%"><stop offset="0%" stop-color="#587CB9"/><stop offset="100%" stop-color="#2E4469" stop-opacity="0"/></linearGradient><linearGradient id="g" x1="34.652%" y1="13.21%" y2="100%"><stop offset="0%" stop-color="#76E1FF"/><stop offset="100%" stop-color="#637BFF" stop-opacity="0"/></linearGradient><linearGradient id="h" x1="50%" x2="50%" y1="0%" y2="97.483%"><stop offset="0%" stop-color="#21C8F6"/><stop offset="100%" stop-color="#637BFF"/></linearGradient><radialGradient id="a" cx="52.436%" cy="42.955%" r="213.906%" fx="52.436%" fy="42.955%" gradientTransform="matrix(-.16883 0 0 -.21136 .613 .52)"><stop offset="0%" stop-color="#433D3D"/><stop offset="100%" stop-opacity="0"/></radialGradient></defs><g fill="none" fill-rule="evenodd" transform="translate(20 31)"><ellipse cx="59.033" cy="56.772" fill="url(#a)" opacity=".522" rx="46.033" ry="7.772"/><path fill="url(#b)" d="M8.702 0H78.82a7.2 7.2 0 017.11 8.333l-5.66 35.502a14.4 14.4 0 01-14.22 12.133H21.471a14.4 14.4 0 01-14.22-12.133L1.59 8.333A7.2 7.2 0 018.701 0z" transform="translate(19.189 .372)"/><path fill="url(#c)" d="M14.762 0a7.2 7.2 0 00-7.134 8.174l4.825 35.342A14.4 14.4 0 0026.72 55.968h-5.25A14.4 14.4 0 017.25 43.835L1.59 8.333A7.2 7.2 0 018.701 0h6.061zM72.76 0h6.061a7.2 7.2 0 017.11 8.333l-5.66 35.502a14.4 14.4 0 01-14.22 12.133H60.8a14.4 14.4 0 0014.27-12.452l4.824-35.342A7.2 7.2 0 0072.76 0z" opacity=".507" transform="translate(19.189 .372)"/><path fill="#243552" d="M42.29 26.372h40.676a1.1 1.1 0 110 2.201H42.29a1.1 1.1 0 110-2.201z"/><path fill="url(#d)" d="M23.1 30h40.678a1.1 1.1 0 110 2.201H23.1a1.1 1.1 0 110-2.201z" transform="translate(19.189 .372)"/><path fill="#243552" d="M42.29 34.372h40.676a1.1 1.1 0 110 2.201H42.29a1.1 1.1 0 110-2.201zm0 4h40.676a1.1 1.1 0 110 2.201H42.29a1.1 1.1 0 110-2.201zm0 4h40.676a1.1 1.1 0 110 2.201H42.29a1.1 1.1 0 110-2.201zm0 4h40.676a1.1 1.1 0 110 2.201H42.29a1.1 1.1 0 110-2.201z"/><path fill="url(#e)" d="M9.108 0h69.305a7.2 7.2 0 016.616 10.041l-1.292 3.01a14.4 14.4 0 01-13.232 8.717H17.016a14.4 14.4 0 01-13.23-8.717l-1.293-3.01A7.2 7.2 0 019.108 0z" transform="translate(19.189 .372)"/><path fill="url(#f)" d="M81.628 16.515a14.401 14.401 0 01-11.123 5.253H17.016a14.4 14.4 0 01-11.122-5.253 14.395 14.395 0 009.116 3.253h57.502c3.388 0 6.59-1.189 9.116-3.253z" transform="translate(19.189 .372)"/><path fill="url(#f)" d="M83.951 2.598a7.227 7.227 0 00-1.538-.164H13.108a7.2 7.2 0 00-6.615 10.041l1.292 3.01a14.38 14.38 0 003.847 5.239 14.398 14.398 0 01-7.847-7.673l-1.292-3.01A7.2 7.2 0 019.108 0h69.305a7.185 7.185 0 015.538 2.598z" transform="translate(19.189 .372)"/><g transform="translate(83 12)"><path stroke="url(#g)" stroke-width="2" d="M30.2 38.564l1.75-27.116-26.149-.66" transform="rotate(55 18.876 24.676)"/><circle cx="36.875" cy="27.875" r="3.5" fill="url(#h)" transform="rotate(55 36.875 27.875)"/><rect width="4" height="11" x="19.695" y=".468" fill="url(#h)" rx="2" transform="scale(-1 1) rotate(-13 0 196.379)"/></g><g transform="translate(0 12)"><path stroke="url(#g)" stroke-width="2" d="M19 43L3 19 20.941 5"/><circle cx="3.5" cy="18.5" r="3.5" fill="url(#h)"/><path fill="url(#h)" d="M19.963.382a2 2 0 012.345 1.581l1.336 6.872a2 2 0 11-3.927.763l-1.335-6.872A2 2 0 0119.963.382z"/></g></g></svg>