<svg xmlns="http://www.w3.org/2000/svg" width="165" height="120"><defs><linearGradient id="b" x1="51.569%" x2="56.445%" y1="0%" y2="100%"><stop offset="0%" stop-color="#5B79A2"/><stop offset="100%" stop-color="#2E4469"/></linearGradient><linearGradient id="c" x1="24.379%" x2="84.171%" y1="5.536%" y2="97.907%"><stop offset="0%" stop-color="#76E1FF"/><stop offset="100%" stop-color="#637BFF" stop-opacity="0"/></linearGradient><linearGradient id="d" x1="54.872%" x2="54.872%" y1="62.175%" y2="100%"><stop offset="0%" stop-color="#1A273E"/><stop offset="100%" stop-color="#2E4469"/></linearGradient><linearGradient id="e" x1="-4.751%" x2="92.574%" y1="40.655%" y2="50%"><stop offset="0%" stop-color="#76E1FF"/><stop offset="100%" stop-color="#637BFF" stop-opacity="0"/></linearGradient><linearGradient id="f" x1="291.65%" x2="-122.19%" y1="-1153.443%" y2="825.685%"><stop offset="0%" stop-color="#21C8F6"/><stop offset="100%" stop-color="#637BFF" stop-opacity="0"/></linearGradient><linearGradient id="g" x1="34.652%" y1="13.21%" y2="100%"><stop offset="0%" stop-color="#76E1FF"/><stop offset="100%" stop-color="#637BFF" stop-opacity="0"/></linearGradient><linearGradient id="h" x1="50%" x2="50%" y1="0%" y2="97.483%"><stop offset="0%" stop-color="#21C8F6"/><stop offset="100%" stop-color="#637BFF"/></linearGradient><linearGradient id="i" x1="3.93%" x2="48.073%" y1="28.69%" y2="47.269%"><stop offset="0%" stop-color="#74C7FF"/><stop offset="100%" stop-color="#2E4469" stop-opacity="0"/></linearGradient><linearGradient id="j" x1="50%" x2="50%" y1="115.834%" y2="-26.266%"><stop offset="0%" stop-color="#76E1FF"/><stop offset="100%" stop-color="#637BFF" stop-opacity="0"/></linearGradient><radialGradient id="a" cx="52.436%" cy="42.955%" r="121.885%" fx="52.436%" fy="42.955%" gradientTransform="matrix(-.2963 0 0 -.21136 .68 .52)"><stop offset="0%"/><stop offset="100%" stop-opacity="0"/></radialGradient></defs><g fill="none" fill-rule="evenodd" transform="translate(15 10)"><ellipse cx="63" cy="92" fill="url(#a)" opacity=".156" rx="27" ry="8"/><g transform="translate(36)"><path fill="url(#b)" d="M48.594 66.506c-11.569.349-21.232-8.657-21.584-20.116-.352-11.46 8.742-21.032 20.312-21.38 11.567-.349 21.232 8.659 21.583 20.117.351 11.459-8.741 21.03-20.311 21.38z"/><path stroke="url(#c)" stroke-width=".7" d="M48.583 66.156c11.377-.342 20.318-9.753 19.972-21.018-.345-11.264-9.847-20.121-21.222-19.778-11.378.342-20.32 9.754-19.973 21.02.346 11.264 9.847 20.12 21.223 19.776z"/><path fill="url(#d)" d="M48.472 62.508c-9.36.282-17.18-6.99-17.464-16.24-.285-9.251 7.074-16.979 16.435-17.26 9.36-.281 17.18 6.99 17.463 16.24.285 9.251-7.072 16.979-16.434 17.26z"/><circle cx="48.5" cy="43.5" r="9.5" fill="url(#e)" transform="rotate(54 48.5 43.5)"/><path stroke="url(#c)" stroke-width=".7" d="M48.462 62.158c9.169-.275 16.373-7.842 16.095-16.898-.278-9.056-7.936-16.178-17.103-15.902-9.17.275-16.375 7.842-16.096 16.9.278 9.056 7.935 16.176 17.104 15.9z"/><g stroke="url(#f)" stroke-width=".55" transform="translate(40 36)"><g transform="rotate(-90 10.357 6.88)"><path d="M16.376 1.874H9.473m6.903 9.202H9.473m6.903-4.431h-4.279v8.224H0v2.877"/><ellipse cx="7.642" cy="1.874" rx="1.831" ry="1.874"/><ellipse cx="7.642" cy="11.076" rx="1.831" ry="1.874"/></g><path d="M0 23.921V18.26h3.874v3.57h3.39v-6.352h7.022v5.039h2.421V13.8h4.843"/><path d="M12.046 23.871v-6.714H5.51v-3.372H1.453V1.328"/></g><path fill="url(#b)" d="M13.002 79.342c1.458 4.161 5.973 6.42 10.176 5.062 7.055-2.28 16.386-7.146 16.508-16.948.196-15.784 4.288-26.051 14.599-28.619 6.852-1.705 13.625-2.761 17.397-3.278a3.198 3.198 0 002.734-3.622C73.163 22.988 66.917-1.339 36.052.057-1.727 1.768.012 32.85.012 32.85a66.852 66.852 0 003.733 20.075l9.257 26.417z"/><g transform="translate(43 38)"><path stroke="url(#g)" stroke-width="2" d="M6.42 6l18.987 25v23"/><circle cx="25" cy="31.237" r="3.5" fill="url(#h)"/><rect width="4" height="11" x="3.596" y="-.593" fill="url(#h)" rx="2" transform="rotate(53 5.596 4.907)"/></g><path stroke="url(#c)" d="M13.474 79.176c1.37 3.912 5.612 6.025 9.55 4.752 9.763-3.155 16.062-8.473 16.162-16.478.21-16.886 4.87-26.581 14.978-29.098 5.733-1.427 11.788-2.513 17.45-3.289a2.698 2.698 0 002.306-3.057c-.964-6.89-3.423-13.845-7.973-19.577C59.51 4.316 49.772-.063 36.075.557c-15.957.723-26.01 6.66-31.4 16.108C2.8 19.95 1.615 23.469.989 27.024a32.618 32.618 0 00-.442 3.713 22.402 22.402 0 00-.035 2.098 66.352 66.352 0 003.704 19.924l9.258 26.417z"/><path fill="#25395B" d="M58.833 5.317c11.583 7.392 14.733 20.547 15.583 26.62a3.198 3.198 0 01-2.734 3.622c-3.772.517-10.545 1.573-17.397 3.278-10.311 2.568-14.403 12.835-14.599 28.619-.122 9.802-9.453 14.668-16.508 16.948-3.794 1.226-7.842-.496-9.667-3.903a8.073 8.073 0 004.667-.097c7.055-2.28 16.386-7.146 16.508-16.948.196-15.784 4.288-26.051 14.599-28.619 6.852-1.705 13.625-2.761 17.397-3.278a3.198 3.198 0 002.734-3.622c-.712-5.087-3.038-15.144-10.583-22.62z"/><path fill="url(#i)" d="M67.098 13.113c-5.724-5.05-14.135-8.614-26.493-8.055C2.826 6.768 4.565 37.85 4.565 37.85a66.852 66.852 0 003.732 20.075l9.187 26.214a8.138 8.138 0 01-4.482-4.797L3.745 52.925A66.852 66.852 0 01.012 32.85S-1.727 1.768 36.052.058c16.155-.731 25.566 5.585 31.046 13.055z" opacity=".308"/><path fill="#213453" d="M1 40.179l13.487-5.607c3.64-1.513 7.795.068 9.626 3.664 2.033 3.994.448 8.94-3.486 10.88L5.424 56S2.074 49.688 1 40.179"/><path stroke="url(#j)" stroke-width="1.2" d="M1 40.179l13.487-5.607c3.64-1.513 7.795.068 9.626 3.664 2.033 3.994.448 8.94-3.486 10.88L5.424 56S2.074 49.688 1 40.179"/><path d="M7.686 48.15l-1.124.458c-.307.126-.674-.059-.818-.412-.144-.353-.012-.742.295-.867l1.124-.46c.307-.125.673.06.818.413.144.353.012.742-.295.867zm1.377-2.617l-1.123.459c-.307.125-.674-.06-.818-.413-.144-.353-.012-.741.295-.867l1.124-.459c.307-.126.673.06.818.412.144.354.012.742-.296.868zm7.434-.985l-6.151 2.514c-.31.127-.678-.057-.822-.41-.144-.354-.01-.743.3-.87l6.147-2.512c.31-.127.678.057.822.41.145.354.011.743-.299.87l.003-.002zm1.416-2.632l-6.104 2.495c-.322.131-.7-.049-.844-.402-.144-.353 0-.746.321-.878l6.104-2.494c.322-.132.7.048.844.402.145.353.001.746-.32.877z" fill="#39ACFA"/></g><g transform="scale(-1 1) rotate(20 -71.731 -95.427)"><path stroke="url(#g)" stroke-width="2" d="M38.89 55.297l-5.458-38.12L3.975 6.836"/><rect width="4" height="13" x="3.04" y=".676" fill="url(#h)" rx="2" transform="rotate(-27 5.04 7.176)"/><circle cx="33.345" cy="17.361" r="3.5" fill="url(#h)"/></g></g></svg>