<svg xmlns="http://www.w3.org/2000/svg" xmlns:xlink="http://www.w3.org/1999/xlink" width="165" height="120"><defs><linearGradient id="a" x1="34.652%" y1="13.21%" y2="100%"><stop offset="0%" stop-color="#76E1FF"/><stop offset="100%" stop-color="#637BFF" stop-opacity="0"/></linearGradient><linearGradient id="b" x1="50%" x2="50%" y1="0%" y2="97.483%"><stop offset="0%" stop-color="#21C8F6"/><stop offset="100%" stop-color="#637BFF"/></linearGradient><linearGradient id="c" x1="4.47%" x2="117.825%" y1="0%" y2="133.334%"><stop offset="0%" stop-color="#5B79A2"/><stop offset="100%" stop-color="#2E4469"/></linearGradient><linearGradient id="d" x1="24.379%" x2="84.171%" y1="5.536%" y2="97.907%"><stop offset="0%" stop-color="#76E1FF"/><stop offset="100%" stop-color="#637BFF" stop-opacity="0"/></linearGradient><linearGradient id="f" x1="98.741%" x2="1.259%" y1="48.741%" y2="48.741%"><stop offset="0%" stop-color="#21C8F6"/><stop offset="100%" stop-color="#637BFF"/></linearGradient><linearGradient id="g" x1="12.205%" x2="108.596%" y1="0%" y2="100%"><stop offset="0%" stop-color="#1A273E"/><stop offset="100%" stop-color="#2E4469"/></linearGradient><linearGradient id="j" x1="154.902%" x2="24.379%" y1="159.481%" y2="5.536%"><stop offset="0%" stop-color="#76E1FF"/><stop offset="100%" stop-color="#637BFF" stop-opacity="0"/></linearGradient><linearGradient id="k" x1="12.8%" x2="107.421%" y1=".616%" y2="98.781%"><stop offset="0%" stop-color="#587CB9"/><stop offset="100%" stop-color="#2E4469" stop-opacity="0"/></linearGradient><path id="h" d="M6.552 0h34.695A6.552 6.552 0 0147.8 6.552v27.827c0 2.7-1.656 5.123-4.171 6.104C39.495 42.094 33.193 42.9 24.72 42.9c-8.982 0-15.824-.906-20.525-2.717A6.552 6.552 0 010 34.069V6.552A6.552 6.552 0 016.552 0z"/><path id="i" d="M6.552 0h34.695A6.552 6.552 0 0147.8 6.552v27.827c0 2.7-1.656 5.123-4.171 6.104C39.495 42.094 33.193 42.9 24.72 42.9c-8.982 0-15.824-.906-20.525-2.717A6.552 6.552 0 010 34.069V6.552A6.552 6.552 0 016.552 0z"/><path id="m" d="M42.825 44.825c-1.416-1.54-1.852-1.858-2.912-2.912C38.859 40.864 38.79 40.79 37 39"/><radialGradient id="e" cx="52.436%" cy="42.955%" r="207.655%" fx="52.436%" fy="42.955%" gradientTransform="matrix(-.17391 0 0 -.21136 .616 .52)"><stop offset="0%" stop-color="#433D3D"/><stop offset="100%" stop-opacity="0"/></radialGradient></defs><g fill="none" fill-rule="evenodd"><g transform="rotate(7 -248.584 110.965)"><g transform="scale(-1 1) rotate(48 -14.89 -33.443)"><path stroke="url(#a)" stroke-width="2" d="M43.128 39.535L31.335 3.486l-28.36 15.35"/><circle cx="31.5" cy="3.5" r="3.5" fill="url(#b)"/><path fill="#FFF" fill-opacity=".2" d="M29.333 6A3.333 3.333 0 1134 1.333 3.333 3.333 0 0029.333 6z"/></g><rect width="4" height="11" x="39.821" y="8.352" fill="url(#b)" rx="2" transform="rotate(-7 41.82 13.852)"/></g><g transform="scale(-1 1) rotate(-24 29.586 395.396)"><g transform="scale(-1 1) rotate(48 -15.39 -34.567)"><path stroke="url(#a)" stroke-width="2" d="M43.128 39.535L31.335 3.486l-28.36 15.35"/><path fill="#FFF" fill-opacity=".2" d="M40.524 41.857a3.81 3.81 0 115.334-5.334 3.81 3.81 0 00-5.334 5.334z"/><circle cx="31.5" cy="3.5" r="3.5" fill="url(#b)"/><path fill="#FFF" fill-opacity=".2" d="M29.333 6A3.333 3.333 0 1134 1.333 3.333 3.333 0 0029.333 6z"/></g><rect width="4" height="11" x="40.821" y="8.352" fill="url(#b)" rx="2" transform="rotate(25 42.82 13.852)"/></g><g transform="translate(33 27)"><path fill="url(#c)" d="M34.04 0h30.856c7.754 0 14.04 6.286 14.04 14.04v32.481c0 9.305-7.543 16.848-16.848 16.848h-25.24C27.543 63.37 20 55.826 20 46.521V14.04C20 6.286 26.286 0 34.04 0z"/><path stroke="url(#d)" d="M34.04.5C26.562.5 20.5 6.562 20.5 14.04v32.481c0 9.03 7.32 16.348 16.348 16.348h25.24c9.029 0 16.348-7.319 16.348-16.348V14.04C78.436 6.562 72.374.5 64.896.5H34.04z"/><ellipse cx="46" cy="66" fill="url(#e)" opacity=".416" rx="46" ry="8"/><ellipse cx="32.268" cy="5.421" fill="url(#f)" rx="1.856" ry="1.886"/><path fill="url(#g)" d="M77.843 43.73v4.715c0 9.305-7.543 16.848-16.848 16.848h-22.99c-9.305 0-16.848-7.543-16.848-16.848V43.73c0 9.304 7.543 16.848 16.848 16.848h22.99c9.305 0 16.848-7.544 16.848-16.848z"/><g transform="translate(25.784 9.429)"><use fill="#243552" xlink:href="#h"/><mask id="l" fill="#fff"><use xlink:href="#i"/></mask><path stroke="url(#j)" d="M6.552.5A6.052 6.052 0 00.5 6.552v27.517a6.052 6.052 0 003.876 5.647C9.009 41.502 15.795 42.4 24.721 42.4c8.415 0 14.662-.799 18.725-2.383a6.052 6.052 0 003.853-5.638V6.552A6.052 6.052 0 0041.247.5H6.552z"/><ellipse cx="13.456" cy="8.014" fill="url(#k)" mask="url(#l)" rx="26.449" ry="26.871"/></g><path fill="url(#f)" d="M35.488 19.214h27.884a1.606 1.606 0 110 3.211H35.488a1.606 1.606 0 010-3.211zm.421 4.729h24.883a1.606 1.606 0 110 3.211H35.908a1.606 1.606 0 010-3.211zm0 4.463h27.883a1.606 1.606 0 110 3.211H35.91a1.606 1.606 0 010-3.211zm0 4.463h18.883a1.606 1.606 0 010 3.211H35.91a1.606 1.606 0 110-3.211z" opacity=".2"/><g stroke-linecap="round" transform="rotate(135 39.913 41.913)"><use stroke="#2E4469" stroke-width="3.888" xlink:href="#m"/><use stroke="url(#b)" stroke-width=".972" xlink:href="#m"/></g><path d="M55.78 6.694h-1.492a.747.747 0 01-.739-.754c0-.417.331-.754.74-.754h1.49c.409 0 .74.337.74.754a.747.747 0 01-.74.754zm2.784-2.074h-1.492a.747.747 0 01-.739-.754c0-.417.331-.755.74-.755h1.49c.409 0 .74.338.74.755a.747.747 0 01-.74.754zm7.608 2.074h-8.167a.75.75 0 01-.744-.754.75.75 0 01.744-.754h8.163a.75.75 0 01.745.754.75.75 0 01-.745.754h.004zm2.751-2.074H60.82a.764.764 0 01-.774-.754c0-.417.347-.755.774-.755h8.104c.427 0 .774.338.774.755a.764.764 0 01-.774.754z" fill="#243552"/></g></g></svg>