<svg xmlns="http://www.w3.org/2000/svg" xmlns:xlink="http://www.w3.org/1999/xlink" width="166" height="100"><defs><linearGradient id="b" x1="98.741%" x2="1.259%" y1="48.741%" y2="48.741%"><stop offset="0%" stop-color="#21C8F6"/><stop offset="100%" stop-color="#637BFF"/></linearGradient><linearGradient id="c" x1="50%" x2="50%" y1="164.199%" y2="0%"><stop offset="0%" stop-color="#5B79A2"/><stop offset="100%" stop-color="#182439"/></linearGradient><linearGradient id="d" x1="4.062%" x2="96.225%" y1="51.313%" y2="43.019%"><stop offset="0%" stop-color="#45E6FB"/><stop offset="100%" stop-color="#21C8F6" stop-opacity="0"/></linearGradient><linearGradient id="f" x1="50%" x2="50%" y1="0%" y2="97.5%"><stop offset="0%" stop-color="#21C8F6"/><stop offset="100%" stop-color="#637BFF"/></linearGradient><linearGradient id="m" x1="98.741%" x2="-40.002%" y1="49.953%" y2="50%"><stop offset="0%" stop-color="#21C8F6"/><stop offset="100%" stop-color="#637BFF" stop-opacity="0"/></linearGradient><radialGradient id="a" cx="10.644%" cy="-13.837%" r="199.126%" fx="10.644%" fy="-13.837%"><stop offset="0%" stop-color="#6BA0E2"/><stop offset="30.516%" stop-color="#54729A"/><stop offset="52.562%" stop-color="#385076"/><stop offset="100%" stop-color="#131E32"/></radialGradient><radialGradient id="e" cx="50%" cy="50%" r="164.16%" fx="50%" fy="50%" gradientTransform="matrix(.41667 0 0 1 .292 0)"><stop offset="0%" stop-color="#21C8F6"/><stop offset="100%" stop-color="#4BDEFF"/></radialGradient><radialGradient id="g" cx="106.3%" cy="0%" r="87.1%" fx="106.3%" fy="0%"><stop offset="0%" stop-color="#00BAFF"/><stop offset="100%" stop-color="#83234B" stop-opacity="0"/></radialGradient><radialGradient id="j" cx="50%" cy="50%" r="68.4%" fx="50%" fy="50%"><stop offset="0%" stop-color="#21C8F6"/><stop offset="100%" stop-color="#4BDEFF"/></radialGradient><filter id="h" width="412.5%" height="412.5%" x="-156.2%" y="-156.2%" filterUnits="objectBoundingBox"><feOffset in="SourceAlpha" result="shadowOffsetOuter1"/><feGaussianBlur in="shadowOffsetOuter1" result="shadowBlurOuter1" stdDeviation="3"/><feColorMatrix in="shadowBlurOuter1" values="0 0 0 0 0.180392157 0 0 0 0 0.811764706 0 0 0 0 0.976470588 0 0 0 1 0"/></filter><filter id="k" width="412.5%" height="412.5%" x="-156.2%" y="-156.2%" filterUnits="objectBoundingBox"><feOffset in="SourceAlpha" result="shadowOffsetOuter1"/><feGaussianBlur in="shadowOffsetOuter1" result="shadowBlurOuter1" stdDeviation="3"/><feColorMatrix in="shadowBlurOuter1" values="0 0 0 0 0.180392157 0 0 0 0 0.811764706 0 0 0 0 0.976470588 0 0 0 1 0"/></filter><circle id="i" cx="11.52" cy="11.52" r="2.88"/><circle id="l" cx="11.52" cy="11.52" r="2.88"/></defs><g fill="none" fill-rule="evenodd"><rect width="68" height="68" fill="url(#a)" rx="11.2"/><g fill="#0C1321" transform="translate(8.5 35)"><rect width="50" height="3" rx="1.5"/><rect width="50" height="14" y="7.5" rx="2.4"/></g><rect width="68" height="68" x="98" fill="url(#a)" rx="11.2"/><g transform="translate(107.5 35)"><rect width="50" height="3" fill="#0C1321" rx="1.5"/><rect width="50" height="3" y="7.5" fill="#0C1321" rx="1.5"/><rect width="50" height="3" y="15" fill="#0C1321" rx="1.5"/><rect width="42" height="3" y="15" fill="url(#b)" rx="1.5"/></g><path stroke="#395177" stroke-width="2.52" d="M93.091 21.75c-14.226 0-5.791 6.494-25.091 6.494"/><g transform="matrix(0 -1 -1 0 98.5 26.5)"><rect width="5.451" height="5.724" x="2.044" y="1.908" fill="#21324E" rx="2.726"/><rect width="9.54" height="3.816" fill="url(#c)" rx="1.908"/></g><path stroke="#395177" stroke-width="2.52" d="M72.909 44.75c15.519-.33 9.243 5.348 25.091 5.348"/><g transform="rotate(-90 58.5 -9)"><rect width="5.451" height="5.724" x="2.044" y="1.908" fill="#21324E" rx="2.726"/><rect width="9.54" height="3.816" fill="url(#c)" rx="1.908"/></g><g transform="scale(-1 1) rotate(27.975 -174.114 -238.745)"><path stroke="url(#d)" stroke-width="2" d="M43.036 1.071L31.028 19.703 7.455 15.471"/><rect width="12" height="5" x="2.179" y="11.231" fill="url(#e)" fill-rule="nonzero" rx="2.5" transform="rotate(152 8.18 13.73)"/><circle cx="3.401" cy="3.401" r="3.401" fill="url(#f)" fill-rule="nonzero" transform="rotate(71 6.081 31.06)"/></g><g transform="rotate(27.975 -90.993 94.945)"><path stroke="url(#d)" stroke-width="2" d="M43.036 1.071L31.028 19.703 7.455 15.471"/><rect width="12" height="5" x="2.179" y="11.231" fill="url(#e)" fill-rule="nonzero" rx="2.5" transform="rotate(152 8.18 13.73)"/><circle cx="3.401" cy="3.401" r="3.401" transform="rotate(71 6.081 31.06)" fill="url(#f)" fill-rule="nonzero"/></g><g fill-rule="nonzero" transform="translate(22 6)"><circle cx="11.52" cy="11.52" r="11.52" fill="url(#g)"/><circle cx="11.52" cy="11.52" r="7.2" fill="#1B283E"/><use fill="#000" filter="url(#h)" xlink:href="#i"/><use fill="url(#j)" xlink:href="#i"/></g><g fill-rule="nonzero" transform="translate(120 6)"><circle cx="11.52" cy="11.52" r="11.52" fill="url(#g)"/><circle cx="11.52" cy="11.52" r="7.2" fill="#1B283E"/><use fill="#000" filter="url(#k)" xlink:href="#l"/><use fill="url(#j)" xlink:href="#l"/></g><path stroke="url(#m)" d="M8.5 46h7.038v3.5h7.902V45h9.244v8H43.66v-4.25H56.5V53h-4.494v-8.5l-13.031.23v4.02h-11.01v5.027H8.5" opacity=".8"/></g></svg>