<svg xmlns="http://www.w3.org/2000/svg" xmlns:xlink="http://www.w3.org/1999/xlink" width="120" height="120.001"><defs><linearGradient id="linear-gradient" x1=".527" x2=".473" y1=".948" gradientUnits="objectBoundingBox"><stop offset="0" stop-color="#df2e67" stop-opacity="0"/><stop offset="1" stop-color="#e0376e"/></linearGradient><linearGradient id="linear-gradient-3" x1=".527" x2="-.276" y1=".948" y2="-1.91" xlink:href="#linear-gradient"/><linearGradient id="linear-gradient-5" x1=".5" x2=".5" y1="1.495" gradientUnits="objectBoundingBox"><stop offset="0" stop-color="#5b79a2"/><stop offset="1" stop-color="#2e4469"/></linearGradient><linearGradient id="linear-gradient-6" x1=".745" x2="-2.075" y1=".896" y2="-.816" gradientUnits="objectBoundingBox"><stop offset="0" stop-color="#dd1e5b"/><stop offset="1" stop-color="#efc7d8"/></linearGradient><linearGradient id="linear-gradient-18" x1=".235" x2=".473" y1=".858" xlink:href="#linear-gradient"/><linearGradient id="linear-gradient-22" x2="1" y2="1" gradientUnits="objectBoundingBox"><stop offset="0" stop-color="#f44881" stop-opacity="0"/><stop offset=".527" stop-color="#ff96ba"/><stop offset="1" stop-color="#f0477f" stop-opacity="0"/></linearGradient><linearGradient id="linear-gradient-25" x1=".527" x2=".477" y1=".948" y2="-.192" gradientUnits="objectBoundingBox"><stop offset="0" stop-color="#df2e67" stop-opacity="0"/><stop offset=".639" stop-color="#df2e67" stop-opacity=".047"/><stop offset="1" stop-color="#e0376e"/></linearGradient><linearGradient id="linear-gradient-31" x1="0" x2="1.261" y1="1" xlink:href="#linear-gradient"/><linearGradient id="linear-gradient-35" x1=".664" x2=".417" y1=".716" y2="-.155" xlink:href="#linear-gradient"/><linearGradient id="linear-gradient-39" x1="-.374" x2="1.123" y1="0" y2="1" xlink:href="#linear-gradient"/><linearGradient id="linear-gradient-43" x1=".809" x2="0" y2=".896" gradientUnits="objectBoundingBox"><stop offset="0" stop-color="#fb3b78"/><stop offset="1" stop-color="#efc7d8"/></linearGradient><linearGradient id="linear-gradient-45" x1=".224" x2=".825" y1=".053" y2=".955" gradientUnits="objectBoundingBox"><stop offset="0" stop-color="#ff5f94"/><stop offset="1" stop-color="#ec454f"/></linearGradient><radialGradient id="radial-gradient" cx=".5" cy="0" r="1" gradientUnits="objectBoundingBox"><stop offset="0" stop-color="#6ba0e2"/><stop offset=".433" stop-color="#54729a"/><stop offset=".722" stop-color="#385076"/><stop offset="1" stop-color="#131e32"/></radialGradient><radialGradient id="radial-gradient-2" cx=".339" cy="1" r=".824" gradientTransform="matrix(.224 -.943 -.634 -.332 .956 1.5)" gradientUnits="objectBoundingBox"><stop offset="0" stop-color="#5b79a2"/><stop offset="1" stop-color="#233451"/></radialGradient><radialGradient id="radial-gradient-3" cx=".33" cy=".864" r=".549" gradientTransform="matrix(1 -.023 .031 1.328 -.026 -.275)" gradientUnits="objectBoundingBox"><stop offset="0" stop-color="#c42e6c"/><stop offset="1" stop-color="#621736" stop-opacity="0"/></radialGradient><radialGradient id="radial-gradient-4" cx=".5" cy=".5" r=".5" gradientUnits="objectBoundingBox"><stop offset="0"/><stop offset=".734" stop-opacity=".137"/><stop offset="1" stop-opacity="0"/></radialGradient><radialGradient id="radial-gradient-5" cx=".338" cy="0" r="1.086" gradientTransform="matrix(.14 .978 -.656 .209 .291 -.331)" gradientUnits="objectBoundingBox"><stop offset="0" stop-color="#c1dcff"/><stop offset="1" stop-color="#233452"/></radialGradient><radialGradient id="radial-gradient-6" cx=".638" cy=".795" r=".877" gradientTransform="matrix(.996 .093 -.133 1.422 .108 -.395)" gradientUnits="objectBoundingBox"><stop offset="0" stop-color="#d12a6f"/><stop offset="1" stop-color="#83234b" stop-opacity="0"/></radialGradient><radialGradient id="radial-gradient-7" cx=".5" cy=".5" r="1.156" gradientTransform="rotate(11.884 .499 .502)" gradientUnits="objectBoundingBox"><stop offset="0" stop-color="#fff"/><stop offset="1" stop-color="#c42e6c"/></radialGradient><radialGradient id="radial-gradient-15" cx=".5" cy=".5" r=".5" xlink:href="#radial-gradient-3"/><filter id="Oval" width="11" height="11" x="56.222" y="21.042" filterUnits="userSpaceOnUse"><feOffset/><feGaussianBlur result="blur" stdDeviation="1.5"/><feFlood flood-color="#ff1777"/><feComposite in2="blur" operator="in"/><feComposite in="SourceGraphic"/></filter><filter id="Oval-Copy-5" width="11" height="11" x="56.222" y="33.968" filterUnits="userSpaceOnUse"><feOffset/><feGaussianBlur result="blur-2" stdDeviation="1.5"/><feFlood flood-color="#ff1777"/><feComposite in2="blur-2" operator="in"/><feComposite in="SourceGraphic"/></filter><filter id="Oval-Copy-5-2" width="11" height="11" x="36.097" y="14.182" filterUnits="userSpaceOnUse"><feOffset/><feGaussianBlur result="blur-3" stdDeviation="1.5"/><feFlood flood-color="#ff1777"/><feComposite in2="blur-3" operator="in"/><feComposite in="SourceGraphic"/></filter><filter id="Oval-Copy-3" width="11" height="11" x="79.019" y="25.072" filterUnits="userSpaceOnUse"><feOffset/><feGaussianBlur result="blur-4" stdDeviation="1.5"/><feFlood flood-color="#ff1777"/><feComposite in2="blur-4" operator="in"/><feComposite in="SourceGraphic"/></filter><filter id="Oval-Copy-6" width="11" height="11" x="14.868" y="33.542" filterUnits="userSpaceOnUse"><feOffset/><feGaussianBlur result="blur-5" stdDeviation="1.5"/><feFlood flood-color="#ff1777"/><feComposite in2="blur-5" operator="in"/><feComposite in="SourceGraphic"/></filter><filter id="Oval-Copy-6-2" width="11" height="11" x="92.857" y="76.077" filterUnits="userSpaceOnUse"><feOffset/><feGaussianBlur result="blur-6" stdDeviation="1.5"/><feFlood flood-color="#ff1777"/><feComposite in2="blur-6" operator="in"/><feComposite in="SourceGraphic"/></filter><filter id="Oval-Copy-5-3" width="11" height="11" x="60.888" y="82.083" filterUnits="userSpaceOnUse"><feOffset/><feGaussianBlur result="blur-7" stdDeviation="1.5"/><feFlood flood-color="#ff1777"/><feComposite in2="blur-7" operator="in"/><feComposite in="SourceGraphic"/></filter><filter id="Oval-Copy-5-4" width="11" height="11" x="19.166" y="76.769" filterUnits="userSpaceOnUse"><feOffset/><feGaussianBlur result="blur-8" stdDeviation="1.5"/><feFlood flood-color="#ff1777"/><feComposite in2="blur-8" operator="in"/><feComposite in="SourceGraphic"/></filter><style>.cls-3{fill:url(#linear-gradient)}.cls-23{fill-rule:evenodd}.cls-21{mix-blend-mode:lighten;isolation:isolate}.cls-12{fill:#090f1a}.cls-13{fill:url(#radial-gradient-7)}.cls-14{fill:url(#linear-gradient-6)}.cls-16{fill:url(#linear-gradient-22)}.cls-21{fill:url(#radial-gradient-15)}.cls-23{fill:rgba(255,255,255,.2)}</style></defs><g id="frameworks-building-alpine" transform="translate(-501 -794)"><g id="Page-1" transform="translate(500 793)"><g id="Newest-Illustrations" transform="translate(-363 -965)"><g id="js-building-alpine-copy" transform="translate(364 966)"><g id="Group-10"><circle id="Mask-Copy" cx="60" cy="60" r="60" fill="url(#radial-gradient)"/></g><g id="Group-26" transform="translate(6.5 5.3)"><ellipse id="Oval-Copy-9" cx="53.393" cy="53.845" fill="#0c1321" rx="53.393" ry="53.845" transform="translate(.399 .84)"/><path id="Path-94" d="M0-.275h33v.55H0z" class="cls-3" transform="translate(18.397 34.213)"/><path id="Path-115" d="M0-.275h45.114v.55H0z" class="cls-3" transform="translate(59.191 37.745)"/><path id="Path-117" fill="url(#linear-gradient-3)" d="M0-.275h106.785v.55H0z" transform="translate(.399 56.988)"/><path id="Path-95" fill="url(#linear-gradient)" fill-rule="evenodd" d="M83.788 25.139h8.074v49.25h-.55v-48.7h-7.524z"/><g id="Group-11" transform="translate(8.798 31.09)"><path id="Combined-Shape-Copy-12" fill="url(#radial-gradient-2)" fill-rule="evenodd" d="M45.886 0l45.663-46.05-.228-.228H45.487L22.742-23.34z" transform="rotate(180 57.145 0)"/><path id="Combined-Shape-Copy-13" fill="url(#radial-gradient-3)" fill-rule="evenodd" d="M45.886 0l45.663-46.05-.228-.228H45.487L22.742-23.34z" transform="rotate(180 57.145 0)" style="mix-blend-mode:lighten;isolation:isolate" opacity=".687"/><ellipse id="shadow-copy-5" cx="19" cy="3" fill="url(#radial-gradient-4)" opacity=".204" rx="19" ry="3" transform="rotate(-110 56.515 -3.679)"/><path id="Combined-Shape" fill="url(#linear-gradient-5)" fill-rule="evenodd" d="M23.144 0l45.814 46.2-.075.076H22.745L0 23.34z"/><path id="Combined-Shape-Copy-2" fill="url(#radial-gradient-5)" fill-rule="evenodd" d="M23.144 0l45.814 46.2-.075.076H22.745L0 23.34z"/><path id="Combined-Shape-Copy-3" fill="url(#radial-gradient-6)" fill-rule="evenodd" d="M23.144 0l45.814 46.2-.075.076H22.745L0 23.34z" opacity=".523"/></g><g id="Group-17" transform="rotate(90 -4.704 73.61)"><rect id="Rectangle" width="7.799" height="26.62" class="cls-12" rx="3.899" transform="translate(0 .605)"/></g><g id="Group-24" transform="rotate(90 22.372 36.854)"><g id="Group-17-Copy" transform="rotate(90 14.335 14.37)"><rect id="Rectangle-2" width="7.799" height="26.62" class="cls-12" data-name="Rectangle" rx="3.899" transform="translate(0 .605)"/></g><g id="Group-8-Copy-2" transform="translate(5.791 3.025)"><g filter="url(#Oval)" transform="rotate(-90 18.565 44.135)"><circle id="Oval-2" cx="1" cy="1" r="1" class="cls-13" data-name="Oval" transform="rotate(90 18.59 44.13)"/></g><circle id="Oval-Copy-2" cx="1" cy="1" r="1" class="cls-14" transform="translate(3.201 -.022)"/><g filter="url(#Oval-Copy-5)" transform="rotate(-90 18.565 44.135)"><circle id="Oval-Copy-5-5" cx="1" cy="1" r="1" class="cls-13" data-name="Oval-Copy-5" transform="rotate(90 12.125 50.595)"/></g><circle id="Oval-Copy-3-2" cx="1" cy="1" r="1" class="cls-14" data-name="Oval-Copy-3" transform="translate(9.568 -.022)"/><circle id="Oval-Copy-6-3" cx="1" cy="1" r="1" class="cls-14" data-name="Oval-Copy-6" transform="translate(16.127 -.022)"/></g></g><g id="Group-24-Copy" transform="rotate(180 22.096 9.193)"><g id="Group-17-Copy-2" data-name="Group-17-Copy" transform="rotate(90 9.02 9.054)"><rect id="Rectangle-3" width="7.799" height="16.94" class="cls-12" data-name="Rectangle" rx="3.899" transform="translate(0 .605)"/></g><g id="Group-8-Copy-2-2" data-name="Group-8-Copy-2" transform="translate(4.799 3.025)"><g filter="url(#Oval-Copy-5-2)" transform="rotate(180 22.945 10.33)"><circle id="Oval-Copy-5-6" cx="1" cy="1" r="1" class="cls-13" data-name="Oval-Copy-5" transform="rotate(180 21.3 10.34)"/></g><circle id="Oval-Copy-3-3" cx="1" cy="1" r="1" class="cls-14" data-name="Oval-Copy-3" transform="translate(-.031 -.022)"/><circle id="Oval-Copy-6-4" cx="1" cy="1" r="1" class="cls-14" data-name="Oval-Copy-6" transform="translate(6.528 -.022)"/></g></g><g id="Group-24-Copy-2" transform="rotate(180 41.894 14.638)"><g id="Group-17-Copy-3" data-name="Group-17-Copy" transform="rotate(90 9.02 9.054)"><rect id="Rectangle-4" width="7.799" height="16.94" class="cls-12" data-name="Rectangle" rx="3.899" transform="translate(0 .605)"/></g><g id="Group-8-Copy-2-3" data-name="Group-8-Copy-2" transform="translate(4.799 3.025)"><g filter="url(#Oval-Copy-3)" transform="rotate(180 42.745 15.775)"><circle id="Oval-Copy-3-4" cx="1" cy="1" r="1" class="cls-13" data-name="Oval-Copy-3" transform="rotate(180 42.76 15.785)"/></g><circle id="Oval-Copy-6-5" cx="1" cy="1" r="1" class="cls-14" data-name="Oval-Copy-6" transform="translate(6.528 -.022)"/></g></g><g id="Group-24-Copy-3" transform="rotate(180 10.043 18.872)"><g id="Group-17-Copy-4" data-name="Group-17-Copy" transform="rotate(90 5.95 5.985)"><rect id="Rectangle-5" width="7.799" height="9.68" class="cls-12" data-name="Rectangle" rx="3.899" transform="translate(0 .605)"/></g><g id="Group-8-Copy-2-4" data-name="Group-8-Copy-2" filter="url(#Oval-Copy-6)" transform="rotate(180 13.295 21.523)"><circle id="Oval-Copy-6-6" cx="1" cy="1" r="1" class="cls-13" data-name="Oval-Copy-6" transform="rotate(180 10.685 20.02)"/></g></g><g id="Group-24-Copy-4" transform="rotate(180 49.038 40.14)"><g id="Group-17-Copy-5" data-name="Group-17-Copy" transform="rotate(90 5.95 5.985)"><rect id="Rectangle-6" width="7.799" height="9.68" class="cls-12" data-name="Rectangle" rx="3.899" transform="translate(0 .605)"/></g><g id="Group-8-Copy-2-5" data-name="Group-8-Copy-2" filter="url(#Oval-Copy-6-2)" transform="rotate(180 52.29 42.788)"><circle id="Oval-Copy-6-7" cx="1" cy="1" r="1" class="cls-13" data-name="Oval-Copy-6" transform="rotate(180 49.68 41.29)"/></g></g><g id="Group-8" transform="translate(45.993 81.305)"><circle id="Oval-3" cx="1" cy="1" r="1" class="cls-14" data-name="Oval" transform="translate(-.031 -.022)"/><circle id="Oval-Copy-2-2" cx="1" cy="1" r="1" class="cls-14" data-name="Oval-Copy-2" transform="translate(3.201 -.022)"/><g filter="url(#Oval-Copy-5-3)" transform="translate(-52.49 -86.61)"><circle id="Oval-Copy-5-7" cx="1" cy="1" r="1" class="cls-13" data-name="Oval-Copy-5" transform="translate(65.39 86.58)"/></g><circle id="Oval-Copy-3-5" cx="1" cy="1" r="1" class="cls-14" data-name="Oval-Copy-3" transform="translate(9.568 -.022)"/><circle id="Oval-Copy-6-8" cx="1" cy="1" r="1" class="cls-14" data-name="Oval-Copy-6" transform="translate(16.127 -.022)"/></g><path id="Path-47" d="M41.793 82.24v.55h-6.974v4.15h5.358v4.108H31v6.122h-9v-.55h8.449V90.5h9.182v-3.011h-5.362V82.24z" class="cls-3"/><path id="Path-51" d="M53.888 86.145h.55v7.34h2.981v7.269H44.075v6.746h-.55v-7.3h13.343v-6.165h-2.98z" class="cls-3"/><path id="Path-63" fill="url(#linear-gradient-18)" d="M63.395 86.145v3.637h10.47v8.132h-24v10.616h-.55V97.365h24v-7.033h-10.47v-4.187z"/><path id="Path-78" d="M47.237 86.145v6.93h-5.169v2.287h3.619v2.914H36.7v6.624h-.55v-7.175h8.99v-1.814h-3.622v-3.386h5.169v-6.38z" class="cls-3"/><path id="Path-87" d="M59.194 86.145V91.5h1.94v9.5h3.232v6.5h-.55v-5.953h-3.23v-9.5h-1.942v-5.9z" class="cls-3"/><path id="Path-88" d="M78.7 82.24v6.049h3.567v12.19h-.55v-11.64H78.15v-6.05h-9.96v-.55z" class="cls-3"/><path id="Path-89" d="M31.781 31.032a.275.275 0 01.33-.044l.059.045L77.951 77.1a.275.275 0 01-.332.433l-.059-.045-45.781-46.067a.275.275 0 01.002-.389z" class="cls-16"/><path id="Path-90" d="M76.907 30.969a.275.275 0 01.438.324l-.044.059L55 54.272a.275.275 0 01-.438-.324l.044-.059z" class="cls-16"/><path id="Path-91" d="M30.07 18.385v3.495h21.322v.55H29.52v-4.045z" class="cls-3"/><path id="Path-92" fill="url(#linear-gradient-25)" d="M71.735 14.177v7.233h-.55v-6.683H43.8v-.55z"/><g id="Group-24-Copy-6" transform="rotate(180 38.84 9.193)"><g id="Group-17-Copy-6" data-name="Group-17-Copy" transform="rotate(90 5.95 5.985)"><rect id="Rectangle-7" width="7.799" height="9.68" class="cls-12" data-name="Rectangle" rx="3.899" transform="translate(0 .605)"/></g><g id="Group-8-Copy-2-6" data-name="Group-8-Copy-2" transform="translate(4.69 3.025)"><circle id="Oval-Copy-6-9" cx="1" cy="1" r="1" class="cls-14" data-name="Oval-Copy-6" transform="translate(.529 -.022)"/></g></g><path id="Path-93" d="M70.766 29.275v2.835H59.191v-.55h11.024v-2.285z" class="cls-3"/><path id="Path-96" d="M13.872 37.745v5.72H6.523v28.43H19v.55H5.973v-29.53h7.349v-5.17z" class="cls-3"/><g id="Group-24-Copy-5" transform="rotate(-90 50.115 35.95)"><g id="Group-17-Copy-7" data-name="Group-17-Copy" transform="rotate(90 9.02 9.054)"><rect id="Rectangle-8" width="7.799" height="16.94" class="cls-12" data-name="Rectangle" rx="3.899" transform="translate(0 .605)"/></g><g id="Group-8-Copy-2-7" data-name="Group-8-Copy-2" transform="translate(4.799 3.025)"><g filter="url(#Oval-Copy-5-4)" transform="rotate(90 55.13 31.44)"><circle id="Oval-Copy-5-8" cx="1" cy="1" r="1" class="cls-13" data-name="Oval-Copy-5" transform="rotate(-90 53.47 29.8)"/></g><circle id="Oval-Copy-3-6" cx="1" cy="1" r="1" class="cls-14" data-name="Oval-Copy-3" transform="translate(-.031 -.022)"/><circle id="Oval-Copy-6-10" cx="1" cy="1" r="1" class="cls-14" data-name="Oval-Copy-6" transform="translate(6.528 -.022)"/></g></g><path id="Path-98" fill="url(#linear-gradient-31)" d="M13.868 77.675v.55H5.612v-.55z"/><path id="Path-99" d="M26.184 77.675v11.77h-7.743v5.251h-.55v-5.8h7.742V78.224H22v-.55z" class="cls-3"/><path id="Path-101" d="M36.342 18.385v8.355h9.4v17.935h-.55V27.29h-9.4v-8.905z" class="cls-3"/><path id="Path-110" d="M26.8 14.177v.55h-4.529v11.248h4.2v10.519h-.55v-9.969h-4.2V14.177z" class="cls-3"/><path id="Path-112" fill="url(#linear-gradient-35)" d="M55.567 6.588v9.377h-.55V7.137H39.668v3.383h-.55V6.588z"/><path id="Path-113" d="M71.735 6.588v3.932h-.55V7.137h-7.791v37.538h-.55V6.588z" class="cls-3"/><path id="Path-118" d="M55.475 42.582v11.5h-.55v-11.5z" class="cls-3"/><path id="Path-119" d="M70.969 18.377l.55.016-.063 2.152H59.225V20h11.7z" class="cls-3"/><path id="Path-114" fill="url(#linear-gradient-39)" d="M79.263 14.177v7.233h-.55v-6.683h-2.724v-.55z"/><path id="Path-116" d="M86.787 76.073v.55h-3.925v5.617h6.173v13.282h-.55V82.789h-6.172v-6.716z" class="cls-3"/><path id="Path-97" d="M98.551 76.416v8.519H98v-7.97h-1.614v-.55z" class="cls-3"/></g><g id="Group-36" transform="rotate(115 32.062 30.879)"><circle id="Oval-Copy-7" cx="12" cy="12" r="12" class="cls-21" transform="rotate(125.03 45.723 11.297)"/><path id="Path-120" fill="none" fill-rule="evenodd" stroke="#f44881" stroke-linejoin="round" stroke-miterlimit="10" stroke-width="2" d="M12.66-48.337l16.277 18.678 12.29-15.339 25.397 30.3"/><g id="Group-14-Copy" transform="rotate(125.03 33.403 -14.873)"><circle id="Oval-4" cx="3.85" cy="3.85" r="3.85" class="cls-14" data-name="Oval" transform="translate(.386 -8.1)"/><path id="Combined-Shape-2" d="M4.053-.4a3.661 3.661 0 002.933-1.466 3.653 3.653 0 01-2.2.732A3.667 3.667 0 011.12-4.8 3.65 3.65 0 011.852-7 3.66 3.66 0 00.386-4.067 3.667 3.667 0 004.053-.4z" class="cls-23" data-name="Combined-Shape"/></g><g id="Group-29" transform="translate(59.205 -11.453)"><circle id="Oval-5" cx="3.5" cy="3.5" r="3.5" fill="url(#linear-gradient-43)" data-name="Oval" transform="rotate(125.03 6.842 -.48)"/><path id="Combined-Shape-3" d="M5.71-3.2a3.328 3.328 0 002.667-1.33 3.319 3.319 0 01-2 .667A3.333 3.333 0 013.044-7.2a3.319 3.319 0 01.667-2 3.328 3.328 0 00-1.334 2.67A3.333 3.333 0 005.71-3.2z" class="cls-23" data-name="Combined-Shape" transform="rotate(125.03 5.375 -6.196)"/></g><g id="Group-31" transform="rotate(125.03 23.022 -8.975)"><circle id="Oval-6" cx="2.4" cy="2.4" r="2.4" class="cls-14" data-name="Oval" transform="translate(0 -4.8)"/><path id="Combined-Shape-4" d="M2.222 0A2.219 2.219 0 004-.89a2.208 2.208 0 01-1.334.446A2.222 2.222 0 01.444-2.667 2.212 2.212 0 01.89-4 2.221 2.221 0 000-2.222 2.222 2.222 0 002.222 0z" class="cls-23" data-name="Combined-Shape"/></g></g><circle id="Oval-Copy-8" cx="8" cy="8" r="8" class="cls-21" transform="rotate(-125.03 53.131 30.491)"/></g></g></g><g id="Color_Crown_Shadow" data-name="Color Crown + Shadow" transform="translate(2957 1184)"><g id="Color_Crown" data-name="Color Crown" transform="translate(-2456 -390)"><path id="Ring" fill="url(#linear-gradient-45)" d="M780 826a59.72 59.72 0 01-33.547-10.247 60.176 60.176 0 01-21.739-26.4 59.921 59.921 0 015.532-56.9 60.176 60.176 0 0126.4-21.738 59.92 59.92 0 0156.9 5.532 60.174 60.174 0 0121.738 26.4 59.923 59.923 0 01-5.532 56.9 60.174 60.174 0 01-26.4 21.739A59.623 59.623 0 01780 826zm0-118a57.729 57.729 0 00-32.429 9.905 58.167 58.167 0 00-21.014 25.518 57.924 57.924 0 005.348 55 58.169 58.169 0 0025.518 21.014 57.923 57.923 0 0055-5.348 58.17 58.17 0 0021.014-25.518 57.924 57.924 0 00-5.348-55 58.171 58.171 0 00-25.518-21.013A57.638 57.638 0 00780 708z" transform="translate(-720 -706)"/></g></g></g></svg>